<?xml version="1.0" encoding="UTF-8"?>
<!DOCTYPE svg PUBLIC "-//W3C//DTD SVG 1.1//EN" "http://www.w3.org/Graphics/SVG/1.1/DTD/svg11.dtd">
<!-- Creator: CorelDRAW 2021 (64-Bit) -->
<svg xmlns="http://www.w3.org/2000/svg" xml:space="preserve" width="508mm" height="101.6mm" version="1.1" style="shape-rendering:geometricPrecision; text-rendering:geometricPrecision; image-rendering:optimizeQuality; fill-rule:evenodd; clip-rule:evenodd"
viewBox="0 0 50800 10160"
 xmlns:xlink="http://www.w3.org/1999/xlink"
 xmlns:xodm="http://www.corel.com/coreldraw/odm/2003">
 <defs>
  <style type="text/css">
   <![CDATA[
    .fil5 {fill:none}
    .fil4 {fill:#009846}
    .fil3 {fill:#9900CC}
    .fil1 {fill:#009846;fill-rule:nonzero}
    .fil0 {fill:#9900CC;fill-rule:nonzero}
    .fil2 {fill:red;fill-rule:nonzero}
   ]]>
  </style>
 </defs>
 <g id="Layer_x0020_1">
  <metadata id="CorelCorpID_0Corel-Layer"/>
  <path class="fil0" d="M15151.92 4598.33c0,574.65 -130.11,970.48 -390.33,1187.46 -244.26,205.05 -661.58,307.59 -1253.21,307.59l-2870.94 0 0 -5365.01 2769.07 0c619.85,0 1047.01,112.08 1281.44,337.4 220.93,209.84 331.39,562.73 331.39,1057.51 0,412.51 -76.08,710.56 -228.29,894.17 -114.15,139.49 -300.71,237.25 -559.72,293.28l0 28.61c497.13,54.85 788.01,287.33 871.49,696.26 33.14,164.53 49.1,351.71 49.1,562.73zm-1193.07 -2374.91c0,-238.44 -44.19,-400.58 -132.55,-486.43 -46.65,-42.91 -110.48,-73.92 -192.72,-94.18 -98.2,-22.65 -255.3,-34.57 -470.1,-34.57l-1465.55 0 0 1366.28 1452.05 0c171.83,0 287.21,-4.76 344.91,-14.3 309.31,-50.08 463.96,-295.67 463.96,-736.8zm125.2 2290.27c0,-295.67 -46.64,-495.97 -139.93,-600.89 -108.01,-100.14 -309.31,-150.22 -603.89,-150.22l-1642.3 0 0 1450.93 1584.61 0c192.7,0 343.68,-14.3 454.16,-41.72 231.96,-81.07 347.35,-301.63 347.35,-658.1zm6320.02 -2191.31c0,591.34 -81,983.59 -244.25,1174.33 -149.75,174.07 -394,290.92 -736.46,350.52l0 21.47c324.05,29.8 569.53,137.09 735.23,320.7 133.78,206.25 200.06,510.27 200.06,909.67l0 994.31 -1067.85 0 0 -808.32c0,-391.06 -56.47,-648.58 -169.39,-771.37 -119.06,-129.96 -346.13,-194.34 -677.54,-194.34l-1480.27 0 0 1774.03 -1060.51 0 0 -5365.01 2717.53 0c716.81,0 1200.42,135.92 1450.82,406.55 222.17,239.64 332.63,636.65 332.63,1187.46zm-1067.85 166.91c0,-338.6 -41.73,-567.5 -126.43,-689.11 -108.01,-127.56 -358.41,-191.94 -751.2,-191.94l-1494.99 0 0 1831.26 1525.69 0c325.27,0 557.26,-69.15 692.26,-206.26 103.11,-128.76 154.67,-377.94 154.67,-743.95zm6691.92 3604.09l-1081.36 0 -353.49 -1009.81 -2392.26 0 -354.73 1009.81 -1097.33 0 1841.15 -5365.01 1553.93 0 1884.09 5365.01zm-1685.26 -1788.33l-950.03 -2798.16 -6.12 1.2 -951.25 2796.96 1907.4 0zm3196.23 1788.33l-1067.86 0 0 -5365.01 1067.86 0 0 5365.01zm6095.42 0l-1774.88 0 -2343.15 -4485.14 -42.96 0 60.13 2224.68 28.25 2260.46 -1067.88 0 0 -5365.01 1760.14 0 2371.4 4485.14 29.46 0 -88.38 -4485.14 1067.87 0 0 5365.01z"/>
  <path class="fil1" d="M42332.07 728.37l-1480.28 5365.01 -1539.2 0 -1105.91 -4091.71 -27 0 -1142.74 4091.71 -1524.45 0 -1434.89 -5365.01 1069.09 0 1147.65 4528.07 29.46 0 1265.48 -4528.07 1222.52 0 1237.26 4528.07 30.68 0 1191.84 -4528.07 1060.49 0zm1510.95 5365.01l-1067.86 0 0 -5365.01 1067.86 0 0 5365.01zm5072.97 0l-4419.98 0 0 -866.74 3056.31 -3618.4 -2909.01 0 0 -879.87 4227.28 0 0 879.87 -3048.96 3605.27 3094.36 0 0 879.87z"/>
  <path class="fil2" d="M10891.66 8342.25l0 -1362.56 291.08 0 0 502.58 881.23 0 0 -502.58 291.08 0 0 1362.56 -291.08 0 0 -661.73 -881.23 0 0 661.73 -291.08 0zm2051.79 415.21l-272.71 0 318.22 -491.46 -425.93 -805.96 293.54 0 213.03 456.82c12.13,27.94 22.99,56.53 32.6,85.16 9.13,28.89 16.63,58.12 22.51,87.96 10.45,-30.79 35.91,-80.35 75.6,-148.03l6.24 -11.12 286.46 -470.79 287.35 0 -836.91 1297.42zm1814.2 -859.32c0,-91.21 -27.98,-162.05 -83.99,-213.21 -55.96,-50.82 -134.08,-76.25 -234.28,-76.25 -100.21,0 -179.17,26.38 -236.81,78.8 -57.16,52.42 -85.98,125.16 -85.98,218.27 0,93.72 27.56,165.81 83.1,216.97 55.54,50.82 133.59,76.25 234.7,76.25 96.49,0 174.12,-27.34 233.86,-82.3 59.32,-54.93 89.4,-127.71 89.4,-218.53zm-7.5 -998.5l265.5 0 0 1442.61 -265.5 0 0 -114.35c-47.25,50.82 -102.79,88.61 -165.83,113.39 -63.05,24.79 -135.34,37.15 -217.17,37.15 -163.68,0 -292.76,-42.55 -387.15,-128.01 -93.96,-85.15 -141.16,-202.05 -141.16,-350.39 0,-140.77 48.04,-254.47 144.52,-340.88 96.01,-86.75 221.74,-129.95 376.7,-129.95 94.39,0 175.38,14.92 242.57,45.1 67.3,30.19 116.6,73.39 147.52,129.62l0 -704.29zm1749.78 1031.19l-927.52 0c6.67,82.61 38.85,146.78 96.91,193.15 57.64,46.1 134.91,69.28 231.34,69.28 85.62,0 157.06,-13.67 213.86,-41 57.16,-27.33 106.88,-71.49 149.51,-132.16l223.83 95.01c-65.15,88.61 -146.2,154.7 -242.27,198.25 -96.48,43.5 -209.18,65.08 -339.11,65.08 -185.77,0 -334.07,-43.2 -443.88,-129.26 -110.24,-86.41 -165.42,-201.45 -165.42,-345.33 0,-138.52 56.8,-251.92 170.82,-341.23 113.6,-88.96 259.74,-133.41 438.48,-133.41 186.73,0 332.45,40.65 436.86,122 104.41,81.3 156.59,195.04 156.59,341.52l0 38.1zm-275.17 -135.97c-10.51,-63.22 -42.63,-111.49 -95.65,-144.53 -53.01,-33.39 -125.3,-49.91 -217.59,-49.91 -87.3,0 -157.48,16.22 -210.5,48.31 -53.02,32.39 -90.18,81 -111.5,146.13l635.24 0zm817.28 -194.44c28.34,-58.12 66.4,-101.33 113.12,-129.26 46.77,-27.99 104.83,-41.95 174.6,-41.95 37.16,0 74.33,3.5 110.65,10.16 36.39,7.01 71.81,16.82 106.94,29.88l-95.65 171.22c-22.58,-12.37 -47.19,-21.58 -73.91,-27.33 -26.3,-6.01 -56.02,-8.87 -88.5,-8.87 -88.14,0 -151.25,26.69 -189.67,80.36 -38.37,53.71 -57.58,143.92 -57.58,270.34l0 387.28 -265.62 0 0 -884.11 265.62 0 0 142.28zm1748.1 741.83l-265.57 0 0 -114.35c-47.25,50.82 -102.79,88.61 -165.83,113.39 -63.04,24.79 -135.27,37.15 -217.17,37.15 -163.67,0 -292.7,-42.55 -387.08,-128.01 -93.97,-85.15 -141.16,-202.05 -141.16,-350.39 0,-140.77 48.03,-254.47 144.52,-340.88 96.01,-86.75 221.73,-129.95 376.7,-129.95 94.38,0 175.38,14.92 242.56,45.1 67.25,30.19 116.54,73.39 147.46,129.62l0 -143.89 265.57 0 0 882.21zm-258.06 -444.11c0,-91.21 -27.98,-162.05 -83.94,-213.21 -55.96,-50.82 -134.07,-76.25 -234.28,-76.25 -100.27,0 -179.16,26.38 -236.8,78.8 -57.22,52.42 -86.04,125.16 -86.04,218.27 0,93.72 27.62,165.81 83.16,216.97 55.54,50.82 133.59,76.25 234.64,76.25 95.64,0 173.34,-27.64 233.08,-82.91 60.1,-55.27 90.18,-127.71 90.18,-217.92zm882.06 0c0,90.21 30.51,162.65 91.45,217.92 60.52,55.27 139.05,82.91 235.12,82.91 100.63,0 178.32,-25.43 233.02,-76.25 55.12,-51.16 82.67,-123.25 82.67,-216.97 0,-93.11 -28.76,-165.85 -86.03,-218.27 -57.64,-52.42 -136.54,-78.8 -236.81,-78.8 -100.21,0 -178.74,25.43 -234.64,76.25 -56.44,51.16 -84.78,122 -84.78,213.21zm8.77 -998.5l0 704.29c30.86,-55.58 80.58,-98.78 148.66,-129.27 68.03,-30.19 149.5,-45.45 243.89,-45.45 154.06,0 278.95,43.2 375.02,129.95 95.64,86.41 143.61,200.11 143.61,340.88 0,148.34 -47.19,265.24 -141.15,350.39 -94.39,85.46 -223.42,128.01 -387.09,128.01 -81.89,0 -154.12,-12.36 -217.17,-37.15 -63.04,-24.78 -118.58,-62.57 -165.77,-113.39l0 114.35 -265.62 0 0 -1442.61 265.62 0zm2283.9 1442.61l-265.5 0 0 -114.35c-47.25,50.82 -102.79,88.61 -165.83,113.39 -63.1,24.79 -135.33,37.15 -217.23,37.15 -163.67,0 -292.7,-42.55 -387.08,-128.01 -93.97,-85.15 -141.16,-202.05 -141.16,-350.39 0,-140.77 48.03,-254.47 144.52,-340.88 96,-86.75 221.73,-129.95 376.7,-129.95 94.38,0 175.38,14.92 242.56,45.1 67.31,30.19 116.54,73.39 147.52,129.62l0 -143.89 265.5 0 0 882.21zm-257.99 -444.11c0,-91.21 -27.98,-162.05 -84,-213.21 -55.96,-50.82 -134.07,-76.25 -234.28,-76.25 -100.21,0 -179.16,26.38 -236.8,78.8 -57.16,52.42 -85.98,125.16 -85.98,218.27 0,93.72 27.56,165.81 83.1,216.97 55.53,50.82 133.59,76.25 234.7,76.25 95.58,0 173.34,-27.64 233.02,-82.91 60.16,-55.27 90.24,-127.71 90.24,-217.92zm1458.34 0c0,-91.21 -27.98,-162.05 -84,-213.21 -55.96,-50.82 -134.07,-76.25 -234.28,-76.25 -100.21,0 -179.1,26.38 -236.8,78.8 -57.16,52.42 -85.98,125.16 -85.98,218.27 0,93.72 27.56,165.81 83.1,216.97 55.53,50.82 133.59,76.25 234.7,76.25 96.48,0 174.12,-27.34 233.86,-82.3 59.32,-54.93 89.4,-127.71 89.4,-218.53zm-7.51 -998.5l265.56 0 0 1442.61 -265.56 0 0 -114.35c-47.25,50.82 -102.79,88.61 -165.83,113.39 -63.04,24.79 -135.33,37.15 -217.17,37.15 -163.67,0 -292.76,-42.55 -387.15,-128.01 -93.96,-85.15 -141.15,-202.05 -141.15,-350.39 0,-140.77 48.03,-254.47 144.52,-340.88 96.06,-86.75 221.73,-129.95 376.69,-129.95 94.39,0 175.39,14.92 242.63,45.1 67.25,30.19 116.54,73.39 147.46,129.62l0 -704.29zm554.54 106.09l200.48 0 0 518.45 -200.48 0 0 -518.45zm353.76 1176.41l220.12 -91.2c16.27,44.19 46.35,77.54 90.6,100.72 44.25,22.88 100.63,34.29 170.39,34.29 59.32,0 106.1,-10.46 139.9,-31.09 33.86,-20.98 50.97,-49.26 50.97,-85.16 0,-47.96 -60.16,-88.96 -180.84,-122.95 -40.95,-11.11 -72.29,-20.32 -94.38,-27.94 -124.05,-39.09 -210.93,-78.79 -260.16,-119.14 -49.3,-40.35 -73.97,-89.27 -73.97,-147.09 0,-78.79 40.53,-142.67 121.94,-191.89 81.06,-48.91 188.35,-73.39 322,-73.39 89.82,0 166.68,12.72 230.98,37.8 63.88,25.08 110.66,60.68 139.9,107.38l-188.35 98.83c-13.75,-27.99 -38.01,-50.22 -72.65,-66.74 -34.71,-16.52 -74.75,-24.78 -120.69,-24.78 -50.55,0 -91.02,9.22 -121.58,27.64 -30.44,18.12 -45.93,42.55 -45.93,73.09 0,45.71 68.51,87.66 205.46,125.8 43.41,11.72 76.85,21.28 100.21,28.89 106.93,32.09 183.36,68.64 229.3,109.29 46.41,40.65 69.34,91.16 69.34,152.19 0,87.96 -42.15,156.94 -126.14,206.81 -83.88,49.86 -199.58,74.94 -347.4,74.94 -113.6,0 -207.56,-16.17 -282.79,-48.26 -75.18,-32.39 -133.6,-81.65 -176.23,-148.04zm2263.92 -627.13l111.07 0c138.7,0 236.8,-14.31 294.44,-43.2 57.28,-28.89 86.04,-77.5 86.04,-145.83 0,-74.34 -26.3,-126.76 -79.31,-156.95 -53.08,-30.14 -153.29,-45.1 -301.17,-45.1l-111.07 0 0 391.08zm0 602.01l100.2 0c101.95,0 178.39,-3.16 228.94,-9.21 50.5,-6.36 90.18,-17.13 119.84,-32.7 35.91,-17.82 63.47,-42.25 83.1,-72.44 19.63,-30.49 29.24,-63.88 29.24,-100.72 0,-43.21 -11.71,-81.31 -35.48,-113.4 -23.84,-32.39 -57.64,-57.52 -101.47,-75.29 -27.62,-10.81 -59.32,-18.42 -94.87,-23.53 -35.48,-4.75 -82.68,-7.31 -141.16,-7.31l-88.14 0 -100.2 0 0 434.6zm-285.2 185.23l0 -1362.56 451.45 0c129.03,0 224.25,5.41 285.68,15.87 61.36,10.47 113.95,27.94 157,52.12 55.54,31.14 98.53,71.79 129.03,122 30.5,50.17 45.93,105.78 45.93,166.46 0,72.74 -22.15,133.42 -65.98,182.03 -44.25,48.61 -108.2,82.6 -192.07,101.97 104.35,12.37 186.6,48.61 246.77,108.34 59.74,60.03 89.76,135.32 89.76,226.49 0,55.31 -12.49,107.72 -37.95,157.29 -25.1,49.86 -60.94,92.11 -107.77,126.75 -48.88,37.8 -109.4,64.49 -182.05,80.06 -72.71,15.56 -194.65,23.18 -365.89,23.18l-453.91 0zm2538.72 -411.42l-927.52 0c6.67,82.61 38.85,146.78 96.85,193.15 57.7,46.1 134.91,69.28 231.4,69.28 85.62,0 157.01,-13.67 213.81,-41 57.21,-27.33 106.93,-71.49 149.56,-132.16l223.77 95.01c-65.14,88.61 -146.14,154.7 -242.2,198.25 -96.49,43.5 -209.25,65.08 -339.12,65.08 -185.82,0 -334.07,-43.2 -443.88,-129.26 -110.24,-86.41 -165.41,-201.45 -165.41,-345.33 0,-138.52 56.79,-251.92 170.81,-341.23 113.54,-88.96 259.74,-133.41 438.48,-133.41 186.67,0 332.45,40.65 436.86,122 104.41,81.3 156.59,195.04 156.59,341.52l0 38.1zm-275.23 -135.97c-10.45,-63.22 -42.57,-111.49 -95.58,-144.53 -53.08,-33.39 -125.31,-49.91 -217.59,-49.91 -87.3,0 -157.49,16.22 -210.51,48.31 -53.07,32.39 -90.18,81 -111.49,146.13l635.17 0zm418.43 387.28l220.17 -91.2c16.21,44.19 46.29,77.54 90.6,100.72 44.25,22.88 100.63,34.29 170.4,34.29 59.26,0 106.09,-10.46 139.89,-31.09 33.81,-20.98 50.92,-49.26 50.92,-85.16 0,-47.96 -60.1,-88.96 -180.85,-122.95 -40.88,-11.11 -72.23,-20.32 -94.32,-27.94 -124.11,-39.09 -210.92,-78.79 -260.16,-119.14 -49.29,-40.35 -73.97,-89.27 -73.97,-147.09 0,-78.79 40.53,-142.67 121.94,-191.89 81,-48.91 188.35,-73.39 322,-73.39 89.77,0 166.62,12.72 230.92,37.8 63.89,25.08 110.72,60.68 139.9,107.38l-188.35 98.83c-13.75,-27.99 -37.95,-50.22 -72.65,-66.74 -34.64,-16.52 -74.75,-24.78 -120.68,-24.78 -50.56,0 -91.02,9.22 -121.53,27.64 -30.5,18.12 -45.93,42.55 -45.93,73.09 0,45.71 68.51,87.66 205.46,125.8 43.41,11.72 76.86,21.28 100.21,28.89 106.94,32.09 183.37,68.64 229.3,109.29 46.35,40.65 69.35,91.16 69.35,152.19 0,87.96 -42.21,156.94 -126.15,206.81 -83.94,49.86 -199.64,74.94 -347.46,74.94 -113.54,0 -207.56,-16.17 -282.73,-48.26 -75.17,-32.39 -133.65,-81.65 -176.28,-148.04zm1262.96 160.11l0 -705.28 -202.94 0 0 -176.93 202.94 0 0 -334.21 265.63 0 0 334.21 202.93 0 0 176.93 -202.93 0 0 705.28 -265.63 0zm1480.44 0l0 -1362.56 291.08 0 0 1362.56 -291.08 0zm687.41 0l0 -882.21 249.77 0 0 144.23c53.02,-61.02 115.22,-105.18 187.09,-133.11 71.81,-27.99 159.05,-41.95 261.78,-41.95 86.46,0 160.01,10.46 220.95,31.13 60.52,20.98 108.19,51.77 142.42,92.77 20.47,24.13 35.06,52.42 44.25,84.51 8.76,32.39 13.39,88.96 13.39,169.31l0 535.32 -268.15 0 0 -453.37c0,-115.94 -18.31,-193.14 -55.54,-231.24 -37.16,-38.15 -103.09,-57.22 -197.53,-57.22 -62.2,0 -117.32,8.61 -165.78,26.08 -48.45,17.47 -86.87,41.91 -114.43,73.39 -19.64,21.28 -33.39,48.27 -40.95,81.65 -7.93,33.04 -11.65,86.07 -11.65,158.5l0 402.21 -265.62 0zm1339.7 -160.11l220.11 -91.2c16.27,44.19 46.35,77.54 90.66,100.72 44.19,22.88 100.63,34.29 170.4,34.29 59.26,0 106.03,-10.46 139.89,-31.09 33.8,-20.98 50.92,-49.26 50.92,-85.16 0,-47.96 -60.16,-88.96 -180.85,-122.95 -40.95,-11.11 -72.23,-20.32 -94.38,-27.94 -124.05,-39.09 -210.87,-78.79 -260.1,-119.14 -49.29,-40.35 -73.97,-89.27 -73.97,-147.09 0,-78.79 40.53,-142.67 121.94,-191.89 81,-48.91 188.35,-73.39 322,-73.39 89.76,0 166.62,12.72 230.92,37.8 63.89,25.08 110.66,60.68 139.9,107.38l-188.35 98.83c-13.75,-27.99 -37.95,-50.22 -72.65,-66.74 -34.65,-16.52 -74.75,-24.78 -120.68,-24.78 -50.56,0 -91.03,9.22 -121.59,27.64 -30.44,18.12 -45.93,42.55 -45.93,73.09 0,45.71 68.51,87.66 205.46,125.8 43.47,11.72 76.91,21.28 100.27,28.89 106.93,32.09 183.31,68.64 229.24,109.29 46.41,40.65 69.41,91.16 69.41,152.19 0,87.96 -42.21,156.94 -126.15,206.81 -83.94,49.86 -199.64,74.94 -347.46,74.94 -113.6,0 -207.56,-16.17 -282.79,-48.26 -75.11,-32.39 -133.59,-81.65 -176.22,-148.04zm1262.96 160.11l0 -705.28 -202.94 0 0 -176.93 202.94 0 0 -334.21 265.62 0 0 334.21 202.94 0 0 176.93 -202.94 0 0 705.28 -265.62 0zm674.02 -1263.78c0,-34.3 16.69,-63.83 49.72,-88.61 32.96,-24.79 72.23,-37.2 117.74,-37.2 47.61,0 86.82,12.07 118.16,35.9 31.34,23.83 47.19,53.71 47.19,89.91 0,35.89 -15.85,66.08 -47.61,90.56 -31.7,24.43 -70.97,36.85 -117.74,36.85 -45.51,0 -84.78,-12.72 -117.74,-37.8 -33.03,-25.13 -49.72,-54.97 -49.72,-89.61zm35.49 1263.78l0 -882.21 265.62 0 0 882.21 -265.62 0zm707.04 0l0 -705.28 -202.94 0 0 -176.93 202.94 0 0 -334.21 265.62 0 0 334.21 202.94 0 0 176.93 -202.94 0 0 705.28 -265.62 0zm954.24 -882.21l0 496.87c0,85.76 23.41,147.09 69.76,184.24 46.36,37.19 121.95,55.91 226.36,55.91 103.93,0 179.58,-18.72 225.93,-55.91 46.36,-37.15 69.71,-98.48 69.71,-184.24l0 -496.87 265.62 0 0 436.5c0,168.66 -44.31,291.31 -133.17,367.56 -88.98,76.24 -231.04,114.34 -425.99,114.34 -197.96,0 -341.63,-37.79 -430.61,-113.39 -88.93,-75.94 -133.18,-198.55 -133.18,-368.51l0 -436.5 265.57 0zm1278.39 882.21l0 -705.28 -203 0 0 -176.93 203 0 0 -334.21 265.56 0 0 334.21 203 0 0 176.93 -203 0 0 705.28 -265.56 0zm1814.08 -411.42l-927.51 0c6.66,82.61 38.85,146.78 96.91,193.15 57.64,46.1 134.91,69.28 231.33,69.28 85.62,0 157.07,-13.67 213.87,-41 57.16,-27.33 106.87,-71.49 149.5,-132.16l223.84 95.01c-65.15,88.61 -146.2,154.7 -242.27,198.25 -96.49,43.5 -209.18,65.08 -339.11,65.08 -185.77,0 -334.07,-43.2 -443.89,-129.26 -110.23,-86.41 -165.41,-201.45 -165.41,-345.33 0,-138.52 56.8,-251.92 170.82,-341.23 113.6,-88.96 259.74,-133.41 438.48,-133.41 186.67,0 332.45,40.65 436.86,122 104.41,81.3 156.58,195.04 156.58,341.52l0 38.1zm-275.16 -135.97c-10.51,-63.22 -42.63,-111.49 -95.65,-144.53 -53.08,-33.39 -125.31,-49.91 -217.59,-49.91 -87.3,0 -157.49,16.22 -210.5,48.31 -53.02,32.39 -90.18,81 -111.5,146.13l635.24 0zm1344.68 547.39l0 -705.28 -202.94 0 0 -176.93 202.94 0 0 -236.69c0,-117.25 32.18,-203.65 96.06,-259.57 63.89,-55.88 163.26,-83.86 297.75,-83.86 28.82,0 58.06,1.6 88.08,4.76 30.56,2.85 61,7.95 91.92,14.96l0 182.33c-21.25,-9.21 -42.63,-16.22 -64.3,-20.97 -21.26,-4.76 -43.47,-6.97 -65.15,-6.97 -63.94,0 -109.39,14.92 -136.95,44.77 -27.98,29.58 -41.79,80.09 -41.79,150.93l0 210.31 278.95 0 0 176.93 -278.95 0 0 705.28 -265.62 0zm1642.06 -438.4c0,-81.96 -34.64,-151.24 -103.99,-208.11 -69.35,-56.87 -154.12,-85.11 -254.33,-85.11 -99.85,0 -184.15,28.24 -253.92,85.11 -69.7,56.87 -104.83,126.15 -104.83,208.11 0,81.95 35.13,151.19 104.83,208.06 69.77,56.87 154.07,85.15 253.92,85.15 99.37,0 183.72,-28.28 253.49,-85.15 69.77,-56.87 104.83,-126.11 104.83,-208.06zm-997.28 -1.91c0,-64.52 16.27,-125.5 48.45,-182.67 32.18,-57.52 78.54,-108.64 138.64,-153.14 59.74,-44.16 128.25,-77.85 205.88,-101.68 77.27,-23.48 158.27,-35.24 243.53,-35.24 87.24,0 169.07,11.76 246.34,35.24 77.28,23.83 146.2,58.47 207.57,104.23 60.94,45.41 107.77,96.57 139.47,153.74 31.76,56.87 47.61,116.94 47.61,179.52 0,65.13 -15.85,126.42 -47.13,183.29 -31.34,57.17 -77.27,107.68 -137.43,151.88 -63.89,46.36 -134.43,81.61 -211.71,105.44 -77.75,23.83 -159.17,35.89 -244.72,35.89 -84.42,0 -165,-12.06 -242.69,-35.89 -77.27,-23.83 -146.14,-58.43 -206.72,-103.54 -61,-46.1 -107.72,-97.56 -139.48,-154.74 -31.76,-56.87 -47.61,-117.84 -47.61,-182.33zm1824.23 -301.52c28.34,-58.12 66.34,-101.33 113.12,-129.26 46.77,-27.99 104.83,-41.95 174.6,-41.95 37.16,0 74.33,3.5 110.65,10.16 36.33,7.01 71.81,16.82 106.88,29.88l-95.59 171.22c-22.58,-12.37 -47.19,-21.58 -73.91,-27.33 -26.36,-6.01 -56.02,-8.87 -88.56,-8.87 -88.08,0 -151.19,26.69 -189.61,80.36 -38.37,53.71 -57.58,143.92 -57.58,270.34l0 387.28 -265.62 0 0 -884.11 265.62 0 0 142.28zm2873.15 -289.41c-82.26,-53.37 -169.56,-93.37 -261,-120.05 -91.86,-26.69 -188.35,-40.05 -289.4,-40.05 -195.85,0 -354.96,47.66 -477.81,143.28 -122.72,95.62 -184.14,219.52 -184.14,371.36 0,147.09 59.74,268.48 179.16,364.1 119.42,95.62 270.18,143.28 452.29,143.28 105.67,0 206.72,-14.31 302.79,-42.9 95.64,-28.59 187.51,-71.49 275.65,-129.31l0 250.36c-78.12,42.86 -163.74,74.65 -255.6,95.62 -92.28,21.28 -192.13,31.74 -299.84,31.74 -137.02,0 -263.53,-17.12 -380.06,-51.11 -116.06,-34.34 -218.43,-84.51 -306.58,-150.94 -87.23,-65.09 -154.06,-141.98 -201.19,-230.29 -46.83,-88.31 -70.25,-182.68 -70.25,-282.45 0,-100.07 23.42,-193.79 70.25,-281.45 47.13,-88.01 114.8,-164.91 203.72,-231.29 88.98,-67.03 190.87,-117.85 306.15,-152.19 114.86,-34.6 239.26,-51.77 372.97,-51.77 105.19,0 205.46,11.77 301.05,34.95 95.22,23.18 187.99,58.47 277.75,105.48l-15.91 223.63zm651.92 249.41l52.66 0c154.07,0 256.38,-13.67 306.93,-41 50.56,-27.29 76.01,-75.6 76.01,-145.18 0,-74.95 -27.14,-127.71 -81.47,-158.5 -54.22,-30.84 -154.91,-46.06 -301.47,-46.06l-52.66 0 0 390.74zm-18.37 172.17l0 609.66 -272.71 0 0 -1362.56 405.94 0c119.06,0 211.77,6.01 277.33,17.78 65.51,11.76 121.53,31.13 168.24,58.47 55.6,33.04 98.23,75.59 128.67,127.71 30.08,52.07 45.09,108.94 45.09,171.21 0,108.99 -34.65,194.44 -103.99,256.37 -69.29,61.63 -172.02,98.82 -307.35,111.19l616.8 619.83 -329.03 0 -595.97 -609.66 -33.02 0zm1709.31 -564.86l0 1174.52 -291.08 0 0 -1174.52 -476.06 0 0 -188.04 1240.75 0 0 188.04 -473.61 0z"/>
  <path class="fil3" d="M4308.35 734.99l1359.95 0 0 6423.35c2869.7,-426.87 2126.26,-3519.24 119.29,-3508.15l572.61 -1017.68c3955.29,980.62 3105.34,5464.01 -1044.28,5674.68l-1007.57 0 0 -7572.2z"/>
  <polygon class="fil4" points="770.28,7197.04 1722.09,6474.95 2638.65,7086.6 4847.79,5370.57 5776.09,6143.63 2556.39,8556.28 "/>
  <rect class="fil5" x="709.54" y="639.99" width="49275.43" height="8188.07"/>
 </g>
</svg>
