<svg width="462" height="417" viewBox="0 0 462 417" fill="none" xmlns="http://www.w3.org/2000/svg">
<path d="M19.8345 296.764C20.5555 313.339 21.6375 392.609 21.9955 395.491C22.3555 398.373 38.2105 396.211 38.2105 396.211L35.6895 313.699L19.8345 296.764Z" fill="#BA9066"/>
<path d="M73.1614 205.605C46.6364 215.215 14.4314 230.106 6.86243 236.591C-0.703571 243.077 -1.78655 267.214 5.05945 279.468C11.9075 291.72 57.6654 352.61 67.7554 364.864C77.8434 377.113 96.2204 402.695 100.183 407.019C104.146 411.342 123.605 425.757 157.834 407.02C192.063 388.283 431.671 272.26 452.209 256.407C463.019 247.04 465.54 237.312 448.967 216.413C432.392 195.515 380.864 127.417 368.615 116.606C356.366 105.796 342.675 103.635 319.614 113.724C296.554 123.813 122.884 187.589 73.1614 205.605Z" fill="white"/>
<path d="M125.69 416.895C109.039 416.895 100.711 408.334 99.8165 407.358C97.9295 405.299 92.8345 398.505 86.9345 390.636C80.2585 381.734 72.6925 371.644 67.3715 365.183C57.6715 353.402 11.5265 292.062 4.62448 279.712C-2.32152 267.279 -1.24852 242.887 6.53848 236.211C13.9445 229.864 45.6195 215.053 72.9925 205.135C127.485 185.391 296.853 123.137 319.416 113.267C329.492 108.858 337.962 106.715 345.306 106.715C354.079 106.715 361.592 109.739 368.949 116.232C378.294 124.479 410.863 166.525 432.416 194.347C439.375 203.33 445.385 211.089 449.361 216.103C466.362 237.542 463.182 247.563 452.54 256.786C439.245 267.05 336.199 318.286 253.4 359.454C208.778 381.64 170.24 400.802 158.077 407.46C146.639 413.72 135.741 416.895 125.69 416.895ZM345.304 107.715C338.101 107.715 329.764 109.831 319.816 114.183C297.233 124.061 127.833 186.328 73.3325 206.075C46.0485 215.961 14.5225 230.686 7.18851 236.972C-0.165494 243.276 -1.1295 267.365 5.4975 279.225C12.3815 291.541 58.4545 352.782 68.1435 364.548C73.4795 371.026 81.0535 381.126 87.7355 390.037C93.6195 397.884 98.7015 404.661 100.555 406.682C101.419 407.625 109.466 415.895 125.691 415.895C135.574 415.895 146.308 412.762 157.596 406.582C169.777 399.914 208.322 380.749 252.954 358.558C335.714 317.41 438.71 266.198 451.905 256.012C462.343 246.966 465.154 237.629 448.577 216.724C444.596 211.706 438.585 203.946 431.624 194.959C410.096 167.167 377.559 125.166 368.286 116.981C361.122 110.66 353.82 107.715 345.304 107.715Z" fill="black"/>
<path d="M104.2 278.979C94.6427 275.507 89.2167 272.296 86.5327 274.754C83.8487 277.206 67.3697 297.32 61.3717 305.637C55.3727 313.951 52.3657 318.518 55.2977 321.496C58.2307 324.476 85.6317 339.054 96.7847 345.004C107.937 350.952 125.133 357.527 129.25 358.604C133.368 359.682 134.458 360.856 140.123 349.362C145.786 337.867 151.893 323.016 151.893 323.016L104.2 278.979Z" fill="#FFA66B"/>
<path d="M111.4 276.694C103.577 278.922 86.8045 284.658 85.4985 285.167C84.1925 285.674 78.5065 295.34 78.8525 297.701C79.1995 300.061 88.6885 346.075 89.9325 349.651C91.1705 353.23 95.2475 356.752 101.097 354.782C106.945 352.811 156.292 339.288 159.97 337.618C163.652 335.945 160.331 324.307 157.177 314.257C154.023 304.209 124.887 275.182 111.4 276.694Z" fill="#FFE7B8"/>
<path d="M78.9857 298.183C81.1247 297.793 90.4157 297.385 90.3767 293.777C90.3387 290.289 86.6637 288.21 85.9807 285.034C85.8457 284.403 84.8817 284.671 85.0167 285.3C85.5027 287.566 87.6707 289.623 88.7457 291.649C89.1077 292.331 89.4777 293.159 89.3417 293.956C89.1717 294.953 86.8687 295.544 86.1477 295.769C83.7517 296.512 81.1827 296.772 78.7207 297.22C78.0857 297.334 78.3547 298.297 78.9857 298.183Z" fill="black"/>
<path d="M93.7276 302.074C95.3756 301.777 96.8966 301.131 98.4756 300.595C100.388 299.947 102.386 299.521 104.309 298.884C108.273 297.571 112.233 295.996 116.336 295.183C116.969 295.057 116.7 294.093 116.07 294.218C112.221 294.982 108.607 296.516 104.862 297.643C101.124 298.768 97.2966 300.42 93.4616 301.109C92.8276 301.224 93.0966 302.188 93.7276 302.074Z" fill="black"/>
<path d="M89.7904 309.073C92.0584 307.453 94.7445 307.858 97.3305 307.387C100.566 306.795 103.67 305.336 106.731 304.182C109.852 303.006 112.973 301.856 116.186 300.952C119.335 300.065 122.598 299.778 125.789 299.086C126.419 298.949 126.152 297.985 125.523 298.121C122.329 298.814 119.086 299.155 115.919 299.988C112.409 300.912 109.015 302.258 105.622 303.536C102.518 304.707 99.0935 306.48 95.7185 306.589C93.4805 306.66 91.1544 306.875 89.2844 308.211C88.7654 308.581 89.2644 309.449 89.7904 309.073Z" fill="black"/>
<path d="M95.9798 321.67C99.1858 319.584 103.078 319.373 106.682 318.389C108.612 317.862 110.454 317.128 112.338 316.463C113.592 316.02 114.883 316.021 116.078 315.363C116.643 315.052 116.14 314.188 115.574 314.5C114.033 315.348 112.112 315.469 110.464 316.081C108.661 316.752 106.867 317.336 104.997 317.789C101.72 318.583 98.3628 318.927 95.4748 320.807C94.9368 321.157 95.4378 322.022 95.9798 321.67Z" fill="black"/>
<path d="M95.7379 327.026C102.571 326.646 109.019 324.047 115.523 322.128C119.207 321.042 122.891 319.96 126.536 318.747C129.474 317.77 132.548 317.241 135.299 315.771C135.868 315.467 135.363 314.604 134.795 314.908C132.117 316.338 129.119 316.813 126.271 317.783C122.939 318.918 119.555 319.899 116.178 320.893C109.483 322.863 102.769 325.635 95.7389 326.026C95.0959 326.062 95.0929 327.063 95.7379 327.026Z" fill="black"/>
<path d="M99.2437 335.38C102.128 334.708 104.972 333.969 107.798 333.088C109.453 332.572 111.43 332.244 112.841 331.174C113.348 330.79 112.851 329.921 112.337 330.311C110.862 331.428 108.703 331.759 106.962 332.302C104.327 333.123 101.666 333.789 98.9787 334.415C98.3507 334.562 98.6167 335.525 99.2437 335.38Z" fill="black"/>
<path d="M46.4574 98.114C40.8744 100.102 32.4054 105.681 34.0264 115.679C35.6484 125.678 50.5094 183.508 57.2654 204.857C64.0214 226.207 63.7524 228.908 73.4804 240.258C83.2084 251.609 106.99 288.63 118.339 297.278C129.689 305.925 129.96 306.467 146.984 300.791C164.008 295.116 235.621 258.905 249.673 252.419C263.725 245.934 274.805 240.799 270.751 231.882C266.697 222.963 259.672 215.397 247.781 203.237C235.89 191.077 212.65 168.646 210.759 166.215C208.597 149.731 201.571 121.626 199.949 110.817C198.328 100.007 193.465 75.686 191.572 68.389C189.68 61.092 185.357 56.499 169.683 61.092C154.011 65.686 62.4024 92.439 46.4574 98.114Z" fill="#D5F0FD"/>
<path d="M44.2135 99.1128C39.4385 103.294 40.6955 109.266 41.7025 114.941C43.1445 123.062 45.2045 131.07 47.2675 139.051C51.9965 157.354 57.0365 175.577 62.0155 193.814C63.6495 199.8 65.3125 205.782 66.8645 211.791C68.2155 217.02 70.1835 221.986 73.2345 226.081C82.9695 239.147 92.7166 252.211 102.668 265.113C109.002 273.326 115.702 281.173 123.256 288.299C125.051 289.992 126.894 292.118 129.139 293.238C131.39 294.362 134.064 293.958 136.417 293.44C144.552 291.653 152.321 287.513 159.868 284.052C168.311 280.179 176.719 276.23 185.119 272.266C200.457 265.03 215.767 257.734 231.022 250.325C238.021 246.926 244.999 243.487 252.004 240.102C256.671 237.847 261.6 235.605 265.582 232.225C267.564 230.543 269.005 228.199 267.672 225.684C267.37 225.114 266.507 225.619 266.809 226.188C269.287 230.862 259.878 234.968 256.915 236.533C251.034 239.635 244.949 242.354 238.994 245.31C232.374 248.596 225.713 251.796 219.053 255C200.989 263.688 182.885 272.299 164.699 280.728C157.131 284.236 149.561 287.904 141.723 290.774C138.389 291.995 134.252 293.598 130.644 292.732C128.274 292.164 126.396 289.856 124.695 288.276C110.06 274.685 98.5125 258.142 86.5655 242.239C82.3985 236.693 78.2436 231.139 74.0986 225.576C70.8326 221.193 69.0865 216.367 67.7215 211.106C63.7215 195.681 59.3565 180.347 55.1945 164.965C51.9795 153.083 48.7495 141.197 45.8205 129.24C44.2755 122.932 42.7425 116.548 41.9645 110.095C41.4685 105.988 41.7016 102.638 44.9216 99.8189C45.4076 99.3949 44.6965 98.6898 44.2135 99.1128Z" fill="black"/>
<path d="M131.893 295.386C131.893 297.908 131.893 300.43 131.893 302.952C131.893 303.597 132.893 303.597 132.893 302.952C132.893 300.429 132.893 297.908 132.893 295.386C132.893 294.741 131.893 294.741 131.893 295.386Z" fill="black"/>
<path d="M69.3204 229.971C70.0004 228.593 70.9524 227.428 71.8274 226.172C72.7834 224.8 73.6404 224.943 75.1934 224.516C78.5044 223.607 81.5034 221.721 84.6644 220.425C91.4124 217.66 98.3924 215.582 105.105 212.687C120.007 206.26 134.701 199.363 149.725 193.22C166.025 186.556 182.28 179.928 198.292 172.573C201.104 171.281 203.909 169.975 206.671 168.582C207.694 168.065 209.54 167.453 210.196 166.422C210.544 165.876 209.678 165.375 209.333 165.917C208.645 166.996 205.843 167.886 204.695 168.45C201.355 170.091 197.967 171.635 194.58 173.173C186.32 176.921 178.004 180.548 169.662 184.109C160.605 187.974 151.377 191.39 142.313 195.237C127.442 201.55 112.907 208.754 97.8704 214.664C92.1734 216.903 86.2354 218.48 80.7024 221.123C79.2834 221.801 77.8684 222.469 76.4054 223.048C74.9384 223.629 73.4874 223.695 71.9974 224.105C71.4674 224.251 71.2124 225.261 70.9634 225.668C70.1634 226.978 69.1424 228.079 68.4574 229.468C68.1724 230.043 69.0344 230.55 69.3204 229.971Z" fill="black"/>
<path d="M91.3172 225.935C100.967 221.11 189.682 185.131 198.872 181.347C208.06 177.564 211.302 175.943 216.976 181.617C222.652 187.293 243.73 209.452 247.514 214.045C251.296 218.64 261.026 223.774 247.783 232.151C234.541 240.529 160.226 273.768 150.768 278.092C141.31 282.416 134.554 288.36 126.447 279.444C118.34 270.526 97.8022 241.611 92.1282 234.855C86.4532 228.098 88.0742 227.556 91.3172 225.935Z" fill="#AFD1DF"/>
<path d="M151.247 265.806C149.892 265.806 148.782 265.402 147.948 264.606C147.456 264.137 146.976 263.688 146.517 263.257C143.812 260.725 142.024 259.053 142.234 257.603C142.317 257.033 142.704 256.571 143.384 256.231C147.173 254.336 156.049 250.403 164.634 246.6C172.507 243.111 179.945 239.816 183.201 238.213C195.047 232.384 199.305 230.36 201.712 231.939L201.81 232.003C205.692 234.549 208.034 236.086 207.983 237.864C207.953 238.905 207.124 239.841 205.292 240.897C201.251 243.229 186.003 250.269 175.913 254.928L171.923 256.773C169.459 257.913 166.997 259.227 164.615 260.499C159.501 263.228 154.67 265.806 151.247 265.806ZM199.833 232.435C197.325 232.435 192.557 234.724 183.643 239.11C180.369 240.722 172.924 244.021 165.042 247.514C156.468 251.313 147.6 255.242 143.833 257.125C143.275 257.404 143.237 257.661 143.225 257.746C143.089 258.679 145.087 260.548 147.202 262.527C147.663 262.959 148.145 263.411 148.639 263.882C149.29 264.503 150.145 264.805 151.249 264.805C154.422 264.805 159.143 262.284 164.144 259.616C166.539 258.338 169.015 257.016 171.504 255.864L175.495 254.02C185.568 249.369 200.79 242.339 204.792 240.031C206.249 239.19 206.965 238.471 206.983 237.834C207.018 236.614 204.603 235.03 201.26 232.838L201.163 232.775C200.816 232.546 200.38 232.435 199.833 232.435Z" fill="black"/>
<path d="M133.805 272.026C131.507 272.026 130.324 270.494 129.071 268.873C127.611 266.983 127.015 265.392 127.301 264.141C127.48 263.357 128.011 262.724 128.838 262.311C129.59 261.935 133.486 260.014 136.352 259.171C136.735 259.059 137.087 259.004 137.432 259.004C139.028 259.004 139.988 260.157 141.203 261.618C141.453 261.92 141.718 262.237 142.003 262.564L142.077 262.648C143.128 263.847 144.215 265.088 143.901 266.547C143.613 267.889 142.184 269.105 139.404 270.374C136.901 271.517 135.174 272.026 133.805 272.026ZM137.432 260.004C137.185 260.004 136.924 260.045 136.635 260.13C134.476 260.766 131.326 262.184 129.285 263.205C128.719 263.488 128.389 263.867 128.275 264.363C128.062 265.295 128.611 266.643 129.861 268.261C131.225 270.027 132.081 271.026 133.804 271.026C135.006 271.026 136.654 270.529 138.987 269.463C141.388 268.367 142.712 267.316 142.923 266.336C143.131 265.368 142.253 264.366 141.324 263.307L141.25 263.222C140.958 262.888 140.688 262.565 140.433 262.257C139.345 260.949 138.559 260.004 137.432 260.004Z" fill="black"/>
<path d="M125.698 261.396C123.399 261.396 122.216 259.865 120.963 258.244C119.503 256.355 118.907 254.764 119.193 253.512C119.372 252.728 119.903 252.094 120.73 251.681C122.914 250.59 126.034 249.193 128.244 248.542C128.627 248.43 128.979 248.375 129.324 248.375C130.92 248.375 131.879 249.528 133.094 250.987C133.345 251.289 133.611 251.607 133.897 251.935L133.972 252.02C135.022 253.219 136.107 254.459 135.793 255.917C135.505 257.259 134.075 258.475 131.296 259.744C128.792 260.887 127.067 261.396 125.698 261.396ZM129.324 249.374C129.077 249.374 128.816 249.415 128.527 249.5C126.377 250.133 123.223 251.552 121.177 252.574C120.611 252.857 120.281 253.236 120.167 253.733C119.954 254.666 120.502 256.014 121.753 257.631C123.117 259.397 123.974 260.395 125.697 260.395C126.899 260.395 128.546 259.899 130.879 258.833C133.28 257.737 134.604 256.686 134.815 255.706C135.023 254.738 134.147 253.737 133.219 252.678L133.144 252.592C132.851 252.258 132.58 251.934 132.325 251.625C131.237 250.318 130.45 249.374 129.324 249.374Z" fill="black"/>
<path d="M117.59 250.766C115.292 250.766 114.11 249.235 112.857 247.614C111.396 245.724 110.8 244.132 111.086 242.881C111.265 242.097 111.796 241.465 112.622 241.053C114.801 239.962 117.92 238.564 120.136 237.911C120.519 237.799 120.871 237.744 121.216 237.744C122.811 237.744 123.77 238.896 124.985 240.355C125.236 240.657 125.502 240.976 125.789 241.304L125.866 241.392C126.915 242.59 127.999 243.831 127.685 245.288C127.397 246.629 125.968 247.845 123.189 249.114C120.686 250.257 118.959 250.766 117.59 250.766ZM121.216 238.743C120.969 238.743 120.707 238.784 120.419 238.869C118.263 239.504 115.112 240.923 113.069 241.946C112.504 242.228 112.173 242.606 112.06 243.102C111.847 244.034 112.396 245.382 113.647 247.001C115.011 248.767 115.867 249.765 117.589 249.765C118.791 249.765 120.439 249.269 122.772 248.203C125.172 247.107 126.496 246.056 126.707 245.076C126.915 244.109 126.04 243.108 125.113 242.049L125.035 241.961C124.743 241.627 124.473 241.302 124.216 240.993C123.128 239.688 122.342 238.743 121.216 238.743Z" fill="black"/>
<path d="M109.483 240.138C107.185 240.138 106.002 238.606 104.75 236.985C103.289 235.095 102.693 233.504 102.979 232.252C103.159 231.469 103.69 230.836 104.516 230.424C105.268 230.047 109.164 228.125 112.031 227.282C112.413 227.17 112.765 227.115 113.11 227.115C114.705 227.115 115.665 228.268 116.88 229.728C117.131 230.03 117.396 230.347 117.682 230.675L117.758 230.761C118.807 231.96 119.893 233.2 119.579 234.658C119.29 236 117.861 237.216 115.082 238.485C112.578 239.628 110.852 240.138 109.483 240.138ZM113.11 228.114C112.862 228.114 112.601 228.155 112.313 228.24C110.154 228.875 107.004 230.295 104.963 231.317C104.397 231.599 104.067 231.978 103.953 232.474C103.74 233.406 104.289 234.754 105.54 236.372C106.904 238.138 107.759 239.137 109.482 239.137C110.684 239.137 112.332 238.64 114.665 237.574C117.065 236.478 118.39 235.426 118.599 234.447C118.807 233.478 117.931 232.478 117.003 231.419L116.928 231.332C116.635 230.998 116.365 230.674 116.11 230.366C115.022 229.059 114.236 228.114 113.11 228.114Z" fill="black"/>
<path d="M141.731 254.28C139.433 254.28 138.251 252.749 136.998 251.128C135.537 249.238 134.941 247.646 135.227 246.394C135.406 245.61 135.937 244.978 136.763 244.565C138.947 243.474 142.067 242.077 144.277 241.426C144.66 241.313 145.013 241.258 145.358 241.258C146.954 241.258 147.914 242.411 149.129 243.871C149.38 244.173 149.644 244.49 149.93 244.817L150.004 244.902C151.055 246.101 152.141 247.342 151.827 248.801C151.538 250.143 150.108 251.359 147.328 252.628C144.825 253.772 143.1 254.28 141.731 254.28ZM145.358 242.258C145.111 242.258 144.849 242.3 144.56 242.385C142.41 243.018 139.256 244.437 137.21 245.459C136.645 245.741 136.314 246.12 136.201 246.616C135.988 247.549 136.537 248.897 137.788 250.516C139.152 252.282 140.008 253.28 141.73 253.28C142.932 253.28 144.579 252.784 146.911 251.719C149.313 250.623 150.638 249.571 150.848 248.592C151.057 247.623 150.18 246.621 149.251 245.561L149.177 245.476C148.885 245.143 148.616 244.819 148.36 244.511C147.271 243.203 146.485 242.258 145.358 242.258Z" fill="black"/>
<path d="M133.624 243.651C131.325 243.651 130.142 242.12 128.89 240.499C127.429 238.608 126.833 237.017 127.119 235.766C127.298 234.982 127.829 234.349 128.655 233.936C130.84 232.844 133.961 231.446 136.169 230.796C136.552 230.684 136.905 230.629 137.25 230.629C138.846 230.629 139.805 231.781 141.02 233.241C141.271 233.543 141.536 233.861 141.822 234.188L141.897 234.273C142.947 235.472 144.033 236.712 143.719 238.171C143.431 239.513 142.001 240.73 139.222 241.999C136.719 243.143 134.993 243.651 133.624 243.651ZM137.25 231.629C137.002 231.629 136.741 231.67 136.451 231.755C134.304 232.388 131.15 233.807 129.102 234.83C128.536 235.113 128.206 235.491 128.093 235.988C127.88 236.92 128.429 238.268 129.68 239.888C131.044 241.654 131.9 242.652 133.623 242.652C134.825 242.652 136.472 242.156 138.805 241.091C141.206 239.995 142.53 238.943 142.74 237.963C142.948 236.995 142.071 235.993 141.143 234.934L141.068 234.848C140.775 234.514 140.505 234.19 140.25 233.882C139.163 232.573 138.377 231.629 137.25 231.629Z" fill="black"/>
<path d="M125.518 233.022C123.219 233.022 122.037 231.491 120.784 229.87C119.323 227.979 118.726 226.388 119.012 225.137C119.191 224.353 119.723 223.72 120.549 223.307C122.737 222.214 125.859 220.816 128.063 220.167C128.446 220.055 128.799 220 129.144 220C130.74 220 131.7 221.153 132.916 222.614C133.167 222.916 133.431 223.233 133.717 223.56L133.792 223.645C134.842 224.844 135.927 226.084 135.613 227.542C135.325 228.884 133.896 230.101 131.116 231.37C128.613 232.514 126.887 233.022 125.518 233.022ZM129.144 221C128.896 221 128.634 221.041 128.344 221.126C126.2 221.757 123.045 223.177 120.995 224.201C120.43 224.484 120.099 224.862 119.986 225.359C119.773 226.291 120.323 227.639 121.574 229.258C122.938 231.024 123.794 232.022 125.517 232.022C126.719 232.022 128.366 231.526 130.699 230.461C133.1 229.365 134.424 228.313 134.633 227.333C134.841 226.365 133.966 225.364 133.037 224.305L132.963 224.219C132.671 223.885 132.402 223.562 132.146 223.254C131.058 221.945 130.271 221 129.144 221Z" fill="black"/>
<path d="M157.765 247.164C155.467 247.164 154.284 245.634 153.032 244.013C151.571 242.122 150.976 240.53 151.262 239.279C151.441 238.495 151.972 237.863 152.798 237.45C154.987 236.355 158.111 234.956 160.312 234.31C160.694 234.198 161.047 234.143 161.392 234.143C162.988 234.143 163.948 235.296 165.163 236.758C165.414 237.059 165.678 237.375 165.963 237.702L166.04 237.789C167.089 238.987 168.174 240.227 167.86 241.686C167.572 243.027 166.143 244.244 163.363 245.514C160.861 246.655 159.134 247.164 157.765 247.164ZM161.392 235.143C161.144 235.143 160.883 235.184 160.594 235.269C158.455 235.896 155.396 237.269 153.245 238.344C152.68 238.626 152.349 239.005 152.236 239.501C152.023 240.434 152.571 241.782 153.822 243.401C155.185 245.166 156.041 246.164 157.764 246.164C158.966 246.164 160.614 245.669 162.947 244.604C165.348 243.507 166.673 242.455 166.883 241.476C167.091 240.508 166.215 239.507 165.287 238.449L165.211 238.361C164.919 238.028 164.65 237.705 164.395 237.398C163.306 236.088 162.519 235.143 161.392 235.143Z" fill="black"/>
<path d="M149.657 236.535C147.359 236.535 146.176 235.005 144.923 233.384C143.463 231.493 142.868 229.901 143.154 228.65C143.333 227.866 143.864 227.234 144.69 226.821C146.876 225.728 149.999 224.33 152.205 223.681C152.587 223.569 152.94 223.514 153.284 223.514C154.88 223.514 155.839 224.666 157.054 226.126C157.305 226.428 157.57 226.745 157.856 227.073L157.932 227.159C158.982 228.358 160.067 229.598 159.753 231.057C159.465 232.399 158.036 233.615 155.256 234.884C152.752 236.026 151.026 236.535 149.657 236.535ZM153.284 224.514C153.037 224.514 152.776 224.555 152.487 224.64C150.343 225.271 147.285 226.642 145.137 227.715C144.572 227.997 144.241 228.376 144.128 228.872C143.914 229.804 144.463 231.153 145.713 232.772C147.077 234.537 147.933 235.535 149.656 235.535C150.858 235.535 152.506 235.04 154.839 233.974C157.24 232.878 158.565 231.826 158.774 230.847C158.982 229.878 158.106 228.877 157.177 227.818L157.102 227.731C156.809 227.397 156.539 227.073 156.284 226.765C155.197 225.458 154.41 224.514 153.284 224.514Z" fill="black"/>
<path d="M141.55 225.906C139.251 225.906 138.069 224.375 136.816 222.754C135.356 220.864 134.76 219.272 135.046 218.021C135.226 217.237 135.757 216.605 136.582 216.192C138.763 215.101 141.882 213.704 144.097 213.052C144.479 212.94 144.832 212.885 145.177 212.885C146.773 212.885 147.734 214.039 148.949 215.501C149.199 215.801 149.463 216.118 149.748 216.444L149.823 216.529C150.874 217.728 151.96 218.968 151.646 220.427C151.358 221.769 149.928 222.985 147.148 224.254C144.645 225.397 142.918 225.906 141.55 225.906ZM145.177 213.885C144.929 213.885 144.668 213.926 144.379 214.011C142.225 214.645 139.073 216.064 137.029 217.086C136.464 217.368 136.134 217.747 136.021 218.243C135.807 219.176 136.356 220.524 137.606 222.142C138.97 223.907 139.826 224.906 141.549 224.906C142.751 224.906 144.398 224.41 146.731 223.345C149.132 222.249 150.457 221.197 150.667 220.218C150.875 219.25 149.998 218.249 149.069 217.189L148.994 217.103C148.703 216.77 148.434 216.447 148.179 216.14C147.091 214.83 146.304 213.885 145.177 213.885Z" fill="black"/>
<path d="M173.798 240.049C171.499 240.049 170.316 238.518 169.064 236.896C167.604 235.007 167.008 233.414 167.294 232.164C167.473 231.38 168.005 230.747 168.831 230.333C171.013 229.242 174.132 227.845 176.346 227.194C176.728 227.082 177.081 227.027 177.426 227.027C179.022 227.027 179.983 228.181 181.198 229.643C181.447 229.943 181.711 230.26 181.996 230.586L182.07 230.67C183.121 231.869 184.207 233.109 183.893 234.569C183.605 235.911 182.176 237.127 179.396 238.395C176.894 239.539 175.167 240.049 173.798 240.049ZM177.425 228.027C177.177 228.027 176.916 228.068 176.627 228.153C174.474 228.787 171.322 230.205 169.277 231.227C168.711 231.51 168.38 231.889 168.267 232.385C168.054 233.318 168.603 234.665 169.854 236.283C171.218 238.049 172.074 239.048 173.797 239.048C174.999 239.048 176.646 238.552 178.979 237.485C181.38 236.389 182.705 235.337 182.915 234.359C183.123 233.39 182.246 232.389 181.316 231.329L181.243 231.244C180.952 230.911 180.682 230.588 180.428 230.281C179.339 228.973 178.552 228.027 177.425 228.027Z" fill="black"/>
<path d="M165.692 229.419C163.393 229.419 162.21 227.888 160.957 226.267C159.497 224.378 158.901 222.787 159.187 221.535C159.366 220.751 159.897 220.118 160.723 219.704C162.912 218.61 166.036 217.212 168.238 216.565C168.62 216.453 168.973 216.398 169.317 216.398C170.914 216.398 171.874 217.552 173.089 219.014C173.339 219.315 173.603 219.632 173.888 219.958L173.961 220.041C175.012 221.24 176.099 222.48 175.786 223.94C175.498 225.282 174.068 226.498 171.289 227.767C168.786 228.91 167.061 229.419 165.692 229.419ZM169.317 217.397C169.07 217.397 168.809 217.438 168.52 217.523C166.381 218.151 163.322 219.523 161.17 220.597C160.605 220.88 160.274 221.259 160.161 221.756C159.948 222.689 160.497 224.036 161.747 225.654C163.111 227.42 163.968 228.418 165.691 228.418C166.893 228.418 168.54 227.922 170.873 226.857C173.274 225.761 174.598 224.709 174.808 223.73C175.016 222.761 174.139 221.76 173.209 220.7L173.136 220.616C172.844 220.283 172.575 219.959 172.32 219.652C171.231 218.343 170.445 217.397 169.317 217.397Z" fill="black"/>
<path d="M157.584 218.792C155.285 218.792 154.103 217.261 152.85 215.64C151.389 213.749 150.793 212.157 151.08 210.906C151.26 210.123 151.791 209.49 152.617 209.078C154.799 207.986 157.919 206.588 160.13 205.937C160.513 205.825 160.866 205.77 161.21 205.77C162.807 205.77 163.768 206.924 164.983 208.386C165.234 208.687 165.498 209.004 165.783 209.33L165.858 209.415C166.908 210.614 167.993 211.854 167.679 213.313C167.391 214.655 165.961 215.872 163.182 217.141C160.68 218.282 158.953 218.792 157.584 218.792ZM161.209 206.77C160.962 206.77 160.701 206.811 160.412 206.896C158.261 207.529 155.109 208.949 153.063 209.972C152.498 210.254 152.168 210.633 152.054 211.128C151.84 212.061 152.389 213.409 153.64 215.028C155.004 216.793 155.86 217.792 157.583 217.792C158.786 217.792 160.433 217.296 162.765 216.23C165.166 215.134 166.49 214.082 166.7 213.102C166.908 212.134 166.032 211.133 165.104 210.074L165.029 209.988C164.737 209.655 164.468 209.332 164.213 209.025C163.124 207.716 162.337 206.77 161.209 206.77Z" fill="black"/>
<path d="M189.831 232.931C187.533 232.931 186.349 231.401 185.098 229.78C183.637 227.89 183.041 226.299 183.327 225.047C183.506 224.264 184.037 223.631 184.863 223.218C187.046 222.126 190.165 220.728 192.377 220.077C192.76 219.965 193.113 219.91 193.457 219.91C195.053 219.91 196.013 221.062 197.227 222.522C197.478 222.824 197.744 223.142 198.03 223.47L198.103 223.553C199.154 224.752 200.241 225.992 199.927 227.452C199.639 228.794 198.21 230.011 195.429 231.28C192.926 232.422 191.2 232.931 189.831 232.931ZM193.457 220.909C193.21 220.909 192.949 220.95 192.659 221.035C190.509 221.668 187.356 223.088 185.31 224.111C184.745 224.393 184.415 224.772 184.301 225.268C184.088 226.201 184.637 227.549 185.888 229.167C187.251 230.932 188.107 231.93 189.83 231.93C191.032 231.93 192.679 231.435 195.012 230.369C197.414 229.272 198.739 228.221 198.948 227.241C199.156 226.272 198.278 225.271 197.349 224.211L197.276 224.127C196.983 223.793 196.712 223.468 196.457 223.16C195.37 221.853 194.584 220.909 193.457 220.909Z" fill="black"/>
<path d="M181.724 222.304C179.426 222.304 178.242 220.773 176.991 219.152C175.531 217.263 174.935 215.671 175.221 214.419C175.4 213.635 175.931 213.002 176.757 212.589C178.938 211.499 182.057 210.102 184.271 209.45C184.654 209.338 185.007 209.283 185.352 209.283C186.947 209.283 187.906 210.435 189.12 211.894C189.371 212.196 189.636 212.514 189.923 212.842L189.997 212.927C191.048 214.126 192.135 215.366 191.821 216.825C191.532 218.167 190.103 219.383 187.323 220.651C184.82 221.794 183.093 222.304 181.724 222.304ZM185.352 210.282C185.104 210.282 184.843 210.323 184.553 210.408C182.4 211.042 179.248 212.46 177.204 213.482C176.639 213.764 176.308 214.143 176.195 214.64C175.982 215.573 176.53 216.921 177.781 218.539C179.145 220.304 180.002 221.303 181.724 221.303C182.926 221.303 184.573 220.807 186.906 219.74C189.307 218.644 190.632 217.593 190.843 216.614C191.051 215.646 190.173 214.644 189.244 213.584L189.17 213.499C188.877 213.165 188.606 212.84 188.351 212.532C187.264 211.227 186.479 210.282 185.352 210.282Z" fill="black"/>
<path d="M173.618 211.674C171.319 211.674 170.137 210.143 168.884 208.522C167.424 206.633 166.828 205.042 167.114 203.79C167.294 203.006 167.825 202.373 168.651 201.959C170.837 200.867 173.958 199.469 176.165 198.819C176.548 198.707 176.901 198.652 177.246 198.652C178.841 198.652 179.8 199.803 181.013 201.262C181.264 201.564 181.53 201.883 181.817 202.211L181.891 202.295C182.942 203.494 184.028 204.734 183.714 206.194C183.426 207.536 181.996 208.753 179.216 210.022C176.713 211.165 174.988 211.674 173.618 211.674ZM177.245 199.651C176.997 199.651 176.736 199.692 176.446 199.777C174.3 200.409 171.146 201.829 169.097 202.852C168.532 203.135 168.201 203.514 168.088 204.011C167.875 204.944 168.424 206.291 169.674 207.909C171.038 209.675 171.894 210.673 173.617 210.673C174.819 210.673 176.466 210.177 178.799 209.111C181.201 208.014 182.526 206.963 182.735 205.983C182.943 205.014 182.066 204.012 181.136 202.953L181.063 202.868C180.77 202.534 180.5 202.209 180.243 201.9C179.157 200.595 178.371 199.651 177.245 199.651Z" fill="black"/>
<path d="M205.866 225.817C203.568 225.817 202.386 224.287 201.133 222.666C199.673 220.776 199.077 219.184 199.363 217.933C199.542 217.149 200.074 216.516 200.9 216.103C203.083 215.011 206.203 213.613 208.413 212.962C208.796 212.85 209.148 212.795 209.492 212.795C211.089 212.795 212.049 213.949 213.264 215.411C213.515 215.712 213.779 216.029 214.065 216.356L214.141 216.443C215.191 217.641 216.276 218.881 215.962 220.339C215.673 221.681 214.244 222.896 211.465 224.165C208.961 225.308 207.235 225.817 205.866 225.817ZM209.492 213.795C209.245 213.795 208.984 213.836 208.695 213.921C206.546 214.554 203.393 215.974 201.347 216.997C200.781 217.28 200.45 217.659 200.337 218.155C200.124 219.088 200.672 220.435 201.923 222.054C203.287 223.819 204.143 224.817 205.865 224.817C207.067 224.817 208.715 224.321 211.049 223.254C213.449 222.158 214.774 221.107 214.984 220.128C215.192 219.16 214.316 218.16 213.389 217.101L213.313 217.014C213.021 216.681 212.751 216.357 212.496 216.05C211.407 214.741 210.619 213.795 209.492 213.795Z" fill="black"/>
<path d="M212.71 236.626C210.411 236.626 209.228 235.095 207.976 233.474C206.517 231.584 205.921 229.992 206.208 228.741C206.387 227.957 206.918 227.324 207.743 226.911C209.933 225.817 213.056 224.419 215.258 223.772C215.64 223.659 215.993 223.604 216.338 223.604C217.934 223.604 218.893 224.758 220.108 226.218C220.359 226.52 220.624 226.838 220.91 227.165L220.984 227.249C222.035 228.448 223.121 229.687 222.808 231.146C222.52 232.488 221.09 233.705 218.309 234.974C215.806 236.117 214.079 236.626 212.71 236.626ZM216.337 224.604C216.09 224.604 215.828 224.646 215.539 224.731C213.399 225.36 210.34 226.731 208.189 227.805C207.625 228.087 207.294 228.466 207.181 228.963C206.968 229.896 207.516 231.244 208.766 232.862C210.13 234.628 210.986 235.626 212.709 235.626C213.911 235.626 215.558 235.13 217.891 234.065C220.293 232.968 221.618 231.917 221.829 230.937C222.036 229.969 221.159 228.968 220.23 227.909L220.156 227.824C219.863 227.49 219.593 227.166 219.338 226.858C218.25 225.549 217.464 224.604 216.337 224.604Z" fill="black"/>
<path d="M229.828 229.599C227.529 229.599 226.347 228.069 225.094 226.448C223.634 224.557 223.038 222.965 223.324 221.714C223.503 220.93 224.034 220.297 224.86 219.884C227.049 218.791 230.172 217.393 232.374 216.745C232.757 216.633 233.11 216.578 233.455 216.578C235.051 216.578 236.011 217.731 237.226 219.193C237.476 219.494 237.741 219.811 238.026 220.138L238.1 220.222C239.151 221.42 240.238 222.661 239.924 224.119C239.636 225.461 238.207 226.678 235.426 227.947C232.924 229.09 231.198 229.599 229.828 229.599ZM233.455 217.577C233.207 217.577 232.946 217.618 232.656 217.703C230.517 218.333 227.457 219.704 225.307 220.777C224.741 221.06 224.411 221.439 224.298 221.935C224.085 222.868 224.633 224.216 225.884 225.835C227.248 227.6 228.104 228.598 229.827 228.598C231.029 228.598 232.676 228.102 235.009 227.037C237.411 225.941 238.736 224.889 238.945 223.909C239.153 222.941 238.275 221.94 237.346 220.881L237.272 220.796C236.98 220.463 236.71 220.139 236.456 219.831C235.369 218.522 234.582 217.577 233.455 217.577Z" fill="black"/>
<path d="M197.759 215.189C195.461 215.189 194.277 213.659 193.024 212.038C191.563 210.148 190.968 208.556 191.254 207.304C191.433 206.52 191.965 205.888 192.791 205.475C194.978 204.382 198.1 202.983 200.306 202.335C200.688 202.223 201.04 202.168 201.385 202.168C202.98 202.168 203.94 203.32 205.155 204.78C205.406 205.082 205.671 205.4 205.957 205.727L206.034 205.814C207.083 207.013 208.168 208.252 207.854 209.71C207.565 211.052 206.136 212.269 203.357 213.538C200.854 214.68 199.128 215.189 197.759 215.189ZM201.385 203.167C201.138 203.167 200.877 203.208 200.588 203.293C198.445 203.923 195.386 205.294 193.238 206.368C192.672 206.65 192.342 207.029 192.228 207.526C192.015 208.458 192.563 209.806 193.814 211.425C195.179 213.19 196.035 214.188 197.758 214.188C198.96 214.188 200.607 213.692 202.94 212.627C205.34 211.53 206.665 210.479 206.875 209.499C207.083 208.531 206.208 207.531 205.28 206.472L205.204 206.384C204.911 206.05 204.641 205.726 204.386 205.418C203.297 204.111 202.511 203.167 201.385 203.167Z" fill="black"/>
<path d="M189.65 204.558C187.354 204.558 186.171 203.028 184.918 201.407C183.458 199.516 182.862 197.924 183.148 196.674C183.327 195.89 183.858 195.257 184.684 194.844C186.87 193.751 189.993 192.353 192.199 191.704C192.581 191.592 192.933 191.537 193.278 191.537C194.873 191.537 195.833 192.69 197.048 194.15C197.298 194.451 197.563 194.769 197.849 195.096L197.925 195.182C198.975 196.381 200.06 197.621 199.746 199.08C199.458 200.421 198.028 201.637 195.249 202.905C192.745 204.048 191.019 204.558 189.65 204.558ZM193.278 192.536C193.031 192.536 192.77 192.577 192.481 192.662C190.337 193.293 187.279 194.664 185.131 195.737C184.566 196.02 184.235 196.399 184.122 196.895C183.909 197.827 184.457 199.175 185.708 200.795C187.072 202.56 187.928 203.558 189.649 203.558C190.851 203.558 192.499 203.062 194.833 201.995C197.234 200.9 198.559 199.849 198.769 198.869C198.977 197.901 198.101 196.9 197.172 195.841L197.097 195.754C196.805 195.421 196.534 195.097 196.28 194.789C195.191 193.481 194.404 192.536 193.278 192.536Z" fill="black"/>
<path d="M221.899 218.701C219.6 218.701 218.417 217.171 217.166 215.55C215.705 213.66 215.109 212.068 215.394 210.818C215.574 210.034 216.105 209.401 216.931 208.988C219.116 207.895 222.239 206.497 224.446 205.848C224.828 205.735 225.181 205.68 225.526 205.68C227.122 205.68 228.082 206.834 229.297 208.295C229.547 208.596 229.812 208.913 230.097 209.24L230.172 209.326C231.222 210.525 232.308 211.764 231.994 213.223C231.706 214.564 230.276 215.78 227.496 217.049C224.994 218.192 223.268 218.701 221.899 218.701ZM225.526 206.68C225.279 206.68 225.017 206.722 224.728 206.807C222.581 207.438 219.427 208.858 217.378 209.882C216.813 210.165 216.482 210.544 216.369 211.04C216.156 211.972 216.705 213.32 217.956 214.938C219.319 216.703 220.175 217.701 221.898 217.701C223.1 217.701 224.747 217.205 227.08 216.139C229.481 215.043 230.806 213.992 231.016 213.012C231.224 212.045 230.347 211.044 229.419 209.985L229.344 209.898C229.052 209.565 228.782 209.241 228.528 208.934C227.44 207.626 226.653 206.68 225.526 206.68Z" fill="black"/>
<path d="M213.79 208.072C211.492 208.072 210.311 206.541 209.059 204.92C207.598 203.029 207.002 201.438 207.287 200.187C207.466 199.403 207.997 198.77 208.823 198.357C211.013 197.263 214.136 195.863 216.336 195.216C216.719 195.104 217.071 195.049 217.415 195.049C219.013 195.049 219.974 196.204 221.19 197.667C221.44 197.967 221.705 198.284 221.99 198.61L222.064 198.695C223.114 199.894 224.201 201.134 223.887 202.593C223.598 203.935 222.168 205.151 219.388 206.419C216.886 207.563 215.159 208.072 213.79 208.072ZM217.417 196.049C217.17 196.049 216.909 196.091 216.62 196.175C214.484 196.804 211.423 198.176 209.271 199.251C208.706 199.534 208.375 199.912 208.262 200.409C208.049 201.341 208.598 202.689 209.849 204.308C211.211 206.073 212.067 207.072 213.79 207.072C214.993 207.072 216.641 206.575 218.974 205.509C221.375 204.413 222.699 203.362 222.909 202.383C223.117 201.415 222.241 200.413 221.313 199.354L221.237 199.268C220.946 198.935 220.676 198.612 220.422 198.305C219.332 196.996 218.546 196.049 217.417 196.049Z" fill="black"/>
<path d="M205.686 197.444C203.387 197.444 202.204 195.912 200.952 194.291C199.492 192.402 198.896 190.81 199.181 189.559C199.361 188.775 199.892 188.142 200.718 187.729C202.9 186.638 206.02 185.24 208.232 184.589C208.614 184.476 208.967 184.422 209.311 184.422C210.908 184.422 211.869 185.576 213.084 187.038C213.335 187.339 213.599 187.656 213.885 187.983L213.962 188.07C215.01 189.268 216.095 190.507 215.78 191.965C215.492 193.307 214.063 194.523 211.283 195.792C208.781 196.935 207.055 197.444 205.686 197.444ZM209.311 185.421C209.064 185.421 208.803 185.463 208.514 185.547C206.363 186.18 203.21 187.599 201.165 188.622C200.6 188.905 200.269 189.284 200.156 189.78C199.943 190.713 200.491 192.06 201.742 193.678C203.106 195.444 203.962 196.443 205.685 196.443C206.887 196.443 208.534 195.946 210.867 194.88C213.268 193.784 214.593 192.732 214.803 191.753C215.011 190.785 214.136 189.785 213.209 188.727L213.133 188.639C212.841 188.306 212.571 187.982 212.316 187.675C211.226 186.368 210.439 185.421 209.311 185.421Z" fill="black"/>
<path d="M62.6725 103.881C56.8625 106.115 50.0615 108.744 51.3225 115.411C53.0055 124.302 59.6075 149.461 63.3915 165.135C67.1735 180.808 73.1195 200.985 74.3805 205.85C75.6435 210.713 76.3615 216.477 83.2075 213.596C90.0555 210.713 183.915 170.537 192.022 166.395C200.13 162.25 202.652 161.712 201.031 155.225C199.409 148.739 190.221 96.1327 187.519 83.3427C184.817 70.5507 183.374 67.1288 172.385 70.3718C161.398 73.6138 74.3815 99.3748 62.6725 103.881Z" fill="#AFD1DF"/>
<path d="M159.233 166.399C157.848 167.208 151.906 169.964 144.176 173.447C143.107 173.932 142.003 174.419 140.879 174.927C136.685 176.809 132.113 178.82 127.55 180.818C120.363 183.964 113.174 187.067 107.435 189.466C102.765 191.423 99.0575 192.915 97.0805 193.596C87.7195 196.839 84.4755 194.136 81.7725 185.315C79.0705 176.485 67.1805 134.869 65.3745 127.66C63.5695 120.459 67.3745 117.974 75.1035 115.055C81.7725 112.526 121.941 99.9215 134.555 95.7715C147.169 91.6305 147.17 97.3925 148.791 102.798C148.964 103.36 149.225 104.279 149.558 105.489C151.657 113.055 156.66 131.864 160.021 144.273C160.258 145.137 160.486 145.968 160.703 146.77C160.811 147.192 160.92 147.589 161.028 147.98C161.048 148.056 161.07 148.131 161.09 148.207C161.286 148.909 161.458 149.558 161.62 150.185C162.14 152.012 162.551 153.494 162.843 154.509C165.179 162.615 163.556 163.869 159.233 166.399Z" fill="white"/>
<path d="M144.175 173.445C143.106 173.93 142.002 174.417 140.878 174.925C139.3 171.943 135.809 162.517 134.241 158.711C134.11 158.376 133.993 158.073 133.884 157.837L136.717 155.814C136.717 155.814 137.02 156.55 137.506 157.728C139.105 161.587 142.673 170.18 144.175 173.445Z" fill="#FFE7B8"/>
<path d="M161.029 147.979C158.142 150.434 124.412 162.663 123.882 160.945C123.34 159.183 119.292 127.571 118.611 122.566C117.93 117.573 118.071 117.032 121.994 115.68C125.864 114.339 141.765 107.725 149.558 105.488" fill="white"/>
<path d="M124.343 161.599C124.163 161.599 124.019 161.584 123.91 161.553C123.562 161.451 123.443 161.22 123.404 161.092C123.004 159.792 120.92 144.012 118.997 129.323C118.587 126.188 118.268 123.749 118.116 122.634C117.416 117.502 117.594 116.668 121.831 115.208C123.049 114.786 125.446 113.846 128.481 112.656C135.062 110.076 144.076 106.542 149.42 105.008C149.682 104.932 149.962 105.085 150.038 105.35C150.114 105.616 149.961 105.892 149.695 105.969C144.396 107.49 135.408 111.014 128.845 113.587C125.799 114.781 123.393 115.725 122.157 116.153C118.556 117.393 118.442 117.631 119.105 122.499C119.257 123.616 119.577 126.056 119.987 129.193C121.329 139.44 123.788 158.233 124.313 160.618C127.296 160.92 157.779 150.085 160.703 147.598C160.915 147.419 161.228 147.443 161.408 147.655C161.587 147.865 161.561 148.181 161.351 148.36C158.677 150.635 129.16 161.599 124.343 161.599Z" fill="black"/>
<path d="M127.55 180.818C120.363 183.964 113.174 187.067 107.435 189.466C105.565 184.667 102.579 175.044 102.308 170.63C108.794 165.905 118.882 165.545 118.882 165.545C118.882 165.545 125.745 174.484 127.55 180.818Z" fill="black"/>
<path d="M89.6962 170.673C89.1562 173.781 84.9662 177.969 86.9932 180.402C89.0202 182.834 91.9932 179.32 92.5342 176.078C92.2622 181.888 95.6422 178.51 94.1552 171.889C92.2622 169.457 89.6962 170.673 89.6962 170.673Z" fill="#FFA66B"/>
<path d="M123.339 135.138C123.61 131.084 124.826 128.787 126.447 129.192C128.068 129.598 126.042 131.76 126.042 131.76C129.285 130.137 131.987 128.382 132.527 130.543C133.067 132.705 128.474 135.947 127.258 136.758C126.042 137.57 123.339 135.138 123.339 135.138Z" fill="#FFA66B"/>
<path d="M86.9044 171.799C86.7244 172.7 93.4804 173.421 94.8324 173.692C96.1844 173.962 97.6244 162.567 97.8934 160.812C98.8854 169.188 99.7414 173.061 100.686 173.061C101.631 173.061 120.772 166.215 120.637 164.729C120.503 163.243 115.233 152.837 115.233 152.837C120.772 155 127.665 153.783 128.475 137.299C125.772 135.543 123.07 134.731 122.665 135.002C122.259 135.273 121.179 145.136 118.476 145.272C115.774 145.407 109.558 140.272 102.666 142.57C95.7764 144.865 88.5254 150.271 86.9044 171.799Z" fill="#60A5FA"/>
<path d="M99.1535 144.731C98.6145 142.434 98.6145 140.272 97.5335 140.137C96.4525 140.001 90.6765 138.719 90.0005 131.692C89.3255 124.666 99.2905 121.219 101.723 124.463C104.155 127.706 106.047 133.245 103.615 137.164C101.723 139.596 103.21 140.542 103.615 142.838C104.019 145.137 99.8285 146.218 99.1535 144.731Z" fill="#FFA66B"/>
<path d="M134.016 118.383C135.636 120.409 137.394 121.356 137.394 122.707C137.529 125.679 128.07 137.028 141.176 140.542C151.18 143.224 152.796 134.192 152.527 129.057C152.256 123.922 142.123 122.166 142.663 121.219C143.475 116.221 143.744 115.545 142.799 115.545C141.852 115.545 134.42 117.301 134.016 118.383Z" fill="#FFE7B8"/>
<path d="M131.447 145.407C135.366 143.11 144.554 132.976 146.581 131.761C148.607 130.544 151.175 140.273 145.365 145.273C139.554 150.271 132.528 148.515 131.447 145.407Z" fill="#FF8F46"/>
<path d="M152.661 93.702C155.093 92.891 167.703 88.748 168.695 88.387C169.685 88.027 170.045 91.271 170.314 93.342C170.586 95.414 170.497 95.685 167.882 96.585C165.271 97.485 156.444 100.37 155.092 100.64C153.741 100.91 153.47 100.097 153.11 98.567C152.75 97.036 151.761 94.152 152.661 93.702Z" fill="#FFE7B8"/>
<path d="M182.747 88.1171C183.387 84.4741 175.991 82.6231 174.911 88.1171C173.83 93.6111 181.847 93.2521 182.747 88.1171Z" fill="#D5F0FD"/>
<path d="M157.255 108.884C159.183 108.927 160.877 108.319 162.615 107.535C165.097 106.416 167.539 105.264 170.054 104.208C172.591 103.143 175.118 101.988 177.761 101.203C180.208 100.476 182.665 100.032 184.937 98.8175C185.506 98.5135 185.001 97.6505 184.433 97.9545C182.252 99.1195 179.861 99.5995 177.495 100.239C175.403 100.804 173.384 101.724 171.392 102.566C169.233 103.479 167.02 104.295 164.899 105.292C162.422 106.456 160.089 107.95 157.254 107.886C156.61 107.869 156.612 108.869 157.255 108.884Z" fill="black"/>
<path d="M159.939 115.167C165.123 112.834 170.631 111.386 175.899 109.272C176.49 109.035 176.232 108.067 175.633 108.308C170.284 110.454 164.697 111.935 159.435 114.304C158.847 114.568 159.356 115.43 159.939 115.167Z" fill="black"/>
<path d="M179.142 108.462C181.665 107.894 184.154 107.219 186.574 106.3C187.171 106.073 186.912 105.107 186.308 105.336C183.888 106.255 181.4 106.93 178.876 107.498C178.247 107.639 178.514 108.603 179.142 108.462Z" fill="black"/>
<path d="M161.831 121.515C164.388 119.853 167.588 119.759 170.343 118.543C170.932 118.283 170.423 117.422 169.839 117.68C167.073 118.9 163.903 118.977 161.327 120.652C160.788 121.001 161.289 121.867 161.831 121.515Z" fill="black"/>
<path d="M164.144 128.728C168.374 128.004 172.311 126.364 176.3 124.843C180.682 123.172 185.216 122.034 189.682 120.621C190.294 120.428 190.033 119.462 189.416 119.657C185.229 120.98 180.964 122.028 176.85 123.575C172.586 125.177 168.393 126.991 163.878 127.764C163.243 127.873 163.513 128.836 164.144 128.728Z" fill="black"/>
<path d="M164.804 134.623C167.347 133.494 170.074 132.941 172.687 132.014C175.51 131.013 178.165 129.63 181.035 128.728C181.648 128.536 181.387 127.57 180.769 127.764C177.895 128.666 175.209 129.931 172.421 131.049C169.764 132.115 166.928 132.592 164.3 133.759C163.711 134.021 164.221 134.882 164.804 134.623Z" fill="black"/>
<path d="M167.202 141.3C168.934 139.849 171.422 139.664 173.512 138.991C175.832 138.245 178.108 137.363 180.358 136.428C180.945 136.185 180.688 135.216 180.092 135.464C177.375 136.591 174.613 137.679 171.778 138.474C169.875 139.007 168.048 139.292 166.495 140.593C165.999 141.007 166.71 141.711 167.202 141.3Z" fill="black"/>
<path d="M168.182 146.784C170.126 145.492 172.394 145.069 174.599 144.418C176.875 143.747 179.055 142.889 181.284 142.094C185.438 140.613 189.556 138.989 193.312 136.651C193.859 136.311 193.357 135.446 192.808 135.788C188.588 138.414 183.955 139.851 179.41 141.754C175.633 143.336 171.115 143.635 167.678 145.921C167.144 146.276 167.644 147.143 168.182 146.784Z" fill="black"/>
<path d="M169.532 156.109C173.904 153.865 178.648 152.491 183.045 150.298C183.622 150.01 183.116 149.148 182.541 149.435C178.143 151.627 173.4 153.001 169.028 155.246C168.453 155.54 168.959 156.402 169.532 156.109Z" fill="black"/>
<path d="M196.153 272.064C195.622 272.064 195.178 271.947 194.802 271.715C193.721 271.048 193.431 269.542 193.328 267.488L194.326 267.438C194.402 268.942 194.575 270.398 195.327 270.862C195.974 271.264 197.184 271.06 199.031 270.247C203.202 268.411 207.761 266.339 209.943 264.885C211.974 263.532 212.767 262.608 212.424 258.863L213.42 258.771C213.791 262.828 212.862 264.141 210.497 265.717C208.257 267.209 203.855 269.216 199.433 271.163C198.065 271.766 196.997 272.064 196.153 272.064Z" fill="black"/>
<path d="M102.802 123.518C102.666 120.276 94.6624 120.657 89.9664 126.254C89.1754 127.197 88.9863 128.788 89.4993 129.964C89.4323 130.069 88.6144 130.679 88.5134 132.131C88.2774 135.713 90.7864 140.61 94.9324 139.259C94.9764 138.775 93.8854 137.03 93.8854 137.03C90.6414 137.672 90.6414 132.876 93.3114 134.464C94.9484 134.819 92.1474 130.494 94.2894 128.519C97.8034 125.275 102.938 126.761 102.802 123.518Z" fill="black"/>
<path d="M221.901 150.755C220.01 156.315 220.394 165.258 230.037 169.374C239.681 173.492 271.637 172.318 279.386 165.461C285.437 160.108 283.442 151.665 279.763 144.874C273.523 133.344 227.864 133.57 221.901 150.755Z" fill="#FFE7B8"/>
<path d="M319.952 288.153C323.763 283.56 334.59 268.248 325.56 251.543C315.111 249.381 309.526 243.977 307.724 243.436C305.922 242.897 299.947 248.624 291.691 249.923C265.387 254.065 263.177 266.622 263.102 266.67C256.832 264.076 247.488 263.897 232.959 272.262C209.179 285.953 205.035 288.836 202.152 291.178C202.554 291.822 203.284 292.905 204.244 294.287C202.809 295.33 200.895 295.695 201.071 296.583C201.244 297.443 218.849 325.604 224.499 330.927C225.48 332.268 226.343 333.35 227.013 334.055C230.797 338.019 267.729 325.046 280.88 318.922C294.032 312.797 323.576 298.384 321.955 293.701C321.382 292.041 320.694 290.067 319.952 288.153Z" fill="white"/>
<path d="M230 335.294H229.999C228.322 335.294 227.228 335.002 226.653 334.4C225.99 333.702 225.13 332.632 224.097 331.221C218.403 325.868 200.778 297.658 200.581 296.681C200.395 295.745 201.35 295.276 202.361 294.78C202.738 294.595 203.152 294.391 203.543 294.153C202.711 292.949 202.089 292.017 201.73 291.442C201.596 291.228 201.643 290.949 201.838 290.79C204.68 288.481 208.757 285.619 232.71 271.828C241.049 267.027 248.503 264.593 254.864 264.593C257.672 264.593 260.334 265.069 262.786 266.006C263.827 262.967 268.917 253.003 291.613 249.429C296.444 248.668 300.451 246.381 303.376 244.71C305.511 243.49 306.955 242.688 307.868 242.956C308.425 243.124 309.173 243.615 310.306 244.359C313.231 246.279 318.125 249.494 325.661 251.053C325.806 251.082 325.93 251.175 325.999 251.305C335.062 268.071 324.358 283.545 320.522 288.245C321.219 290.063 321.871 291.924 322.428 293.537C324.051 298.225 300.844 310.175 281.09 319.374C269.083 324.967 239.935 335.294 230 335.294ZM202.817 291.286C203.233 291.928 203.861 292.854 204.658 294.002C204.812 294.226 204.761 294.531 204.541 294.691C203.974 295.103 203.352 295.409 202.804 295.677C202.359 295.896 201.528 296.304 201.564 296.486C201.999 297.643 219.218 325.262 224.844 330.562C225.912 332.007 226.745 333.043 227.378 333.709C227.586 333.927 228.203 334.293 230 334.293C239.637 334.294 269.035 323.886 280.671 318.468C306.478 306.45 322.498 296.792 321.484 293.864C320.901 292.178 320.218 290.222 319.488 288.334C319.423 288.165 319.453 287.974 319.569 287.834C323.111 283.564 333.95 268.403 325.231 251.984C317.635 250.367 312.518 247.007 309.757 245.195C308.774 244.549 307.998 244.039 307.582 243.914C307.55 243.905 307.507 243.899 307.458 243.899C306.811 243.899 305.449 244.677 303.872 245.578C300.88 247.287 296.782 249.628 291.77 250.417C268.221 254.125 264.183 264.644 263.613 266.714C263.58 266.834 263.475 267.026 263.371 267.092C263.234 267.18 263.062 267.194 262.911 267.132C260.443 266.111 257.736 265.593 254.866 265.593C248.681 265.593 241.395 267.983 233.21 272.696C210.285 285.895 205.635 289.039 202.817 291.286Z" fill="black"/>
<path d="M203.814 294.54C206.337 299.105 210.046 303.094 213.111 307.291C216.925 312.513 220.636 317.832 224.061 323.318C224.402 323.864 225.267 323.363 224.924 322.814C221.664 317.591 218.145 312.517 214.524 307.541C211.286 303.09 207.342 298.856 204.676 294.036C204.366 293.472 203.501 293.976 203.814 294.54Z" fill="black"/>
<path d="M262.749 267.023C267.529 271.721 271.911 276.776 276.199 281.921C280.538 287.127 285.406 292.225 289.097 297.915C289.447 298.454 290.313 297.953 289.96 297.411C286.376 291.885 281.686 286.974 277.487 281.914C273.017 276.525 268.451 271.225 263.455 266.315C262.996 265.864 262.288 266.571 262.749 267.023Z" fill="black"/>
<path d="M2.77853 241.501C1.68753 245.566 2.67152 249.893 3.89052 253.812C5.76552 259.844 8.79752 265.525 11.9975 270.941C19.4225 283.501 28.8765 294.949 37.5535 306.657C44.9525 316.64 52.3195 326.675 60.1845 336.3C65.7535 343.114 71.7025 349.631 77.6215 356.14C84.5305 363.74 91.5235 371.267 98.6675 378.647C103.027 383.152 107.384 388.042 112.712 391.435C129.862 402.358 151.415 389.547 167.282 382.112C186.381 373.162 205.402 364.041 224.385 354.847C224.966 354.566 224.458 353.703 223.881 353.984C210.574 360.428 197.242 366.819 183.89 373.166C174.131 377.805 164.361 382.42 154.544 386.935C144.306 391.644 132.522 396.359 121.057 393.84C114.691 392.443 109.828 388.366 105.297 383.929C98.7175 377.483 92.4345 370.722 86.1705 363.971C79.3415 356.611 72.5805 349.181 65.9905 341.605C59.0955 333.678 52.7395 325.317 46.4355 316.919C37.0225 304.378 27.3655 291.918 18.4105 279.046C13.9545 272.642 9.90953 265.885 6.79653 258.721C4.60253 253.672 2.25351 247.321 3.74251 241.77C3.91051 241.143 2.94553 240.879 2.77853 241.501Z" fill="black"/>
<path d="M382.622 271.607C387.716 271.666 392.955 269.394 397.592 267.547C404.962 264.612 412.113 261.117 419.173 257.509C430.692 251.62 442.578 245.565 453.184 238.102C453.707 237.734 453.208 236.867 452.68 237.239C442.39 244.478 430.881 250.342 419.729 256.1C412.704 259.728 405.578 263.203 398.259 266.205C393.466 268.172 387.914 270.667 382.622 270.606C381.977 270.599 381.978 271.599 382.622 271.607Z" fill="black"/>
<path d="M307.907 274.784C303.583 274.423 293.854 277.304 289.351 275.503C284.847 273.702 290.431 270.099 296.016 270.64C301.602 271.181 306.466 268.118 299.98 266.495C293.495 264.875 281.604 266.675 287.55 260.911C288.99 257.669 292.594 256.587 294.215 256.948C296.557 250.463 313.673 259.832 320.157 259.29C325.023 267.757 325.022 273.522 307.907 274.784Z" fill="#FF8F46"/>
<path d="M308.681 153.303C300.499 157.633 294.087 169.505 292.962 176.242C291.839 182.978 292.249 185.433 290.245 185.578C287.215 185.798 284.553 185.494 283.832 187.339C282.516 190.694 287.988 190.999 287.827 195.17C287.666 199.34 284.299 214.259 287.347 223.882C290.395 233.507 296.01 238.321 304.03 239.763C312.051 241.207 315.9 236.553 316.702 245.056C317.504 253.559 319.268 270.242 319.268 270.242L351.831 262.542L345.576 235.595C345.576 235.595 360.333 147.208 308.681 153.303Z" fill="#FFA66B"/>
<path d="M317.621 258.008C317.922 263.315 318.879 268.818 318.252 274.125C318.177 274.765 319.178 274.758 319.252 274.125C319.879 268.817 318.922 263.314 318.621 258.008C318.585 257.367 317.585 257.363 317.621 258.008Z" fill="black"/>
<path d="M306.927 154.362C309.333 154.362 315.257 156.192 315.578 160.202C312.05 168.06 313.653 174.638 319.909 178.969C326.165 183.3 329.854 187.31 322.155 194.209C314.456 201.105 314.296 209.768 323.598 215.862C332.902 221.959 335.148 224.044 331.296 232.064C327.446 240.085 322.13 247.444 329.92 256.792C337.489 251.228 344.934 250.671 351.829 251.313C358.726 251.955 363.058 251.313 367.229 243.132C371.399 234.95 380.222 238.481 387.119 240.566C394.017 242.651 397.546 240.084 400.914 232.064C404.283 224.043 410.7 225.327 415.351 224.204C420.004 223.081 421.608 210.891 425.777 209.126C419.361 203.832 416.194 208.21 412.505 204.038C408.816 199.867 413.631 191.052 408.498 185.118C403.366 179.183 395.521 186.32 393.598 181.347C391.673 176.374 402.199 171.11 391.29 158.758C380.385 146.405 372.042 156.029 364.823 146.727C357.606 137.422 323.452 135.435 306.927 154.362Z" fill="black"/>
<path d="M300.982 168.024C303.915 167.996 306.383 170.516 307.289 173.152C307.475 173.692 308.335 173.46 308.147 172.915C307.114 169.905 304.326 167.102 300.982 167.133C300.408 167.139 300.408 168.029 300.982 168.024Z" fill="black"/>
<path d="M288.289 205.114C289.74 206.358 291.713 207.19 293.665 206.862C295.972 206.474 297.521 204.943 299.238 203.472C299.674 203.099 299.043 202.471 298.608 202.842C295.7 205.334 292.484 207.542 288.919 204.484C288.486 204.112 287.854 204.739 288.289 205.114Z" fill="black"/>
<path d="M302.562 185.262C302.268 187.167 301.106 188.567 299.969 188.392C298.828 188.215 298.147 186.53 298.441 184.626C298.734 182.72 299.896 181.321 301.034 181.495C302.172 181.671 302.855 183.358 302.562 185.262Z" fill="black"/>
<path d="M272.771 299.288C271.517 300.002 267.367 298.748 263.042 296.76C262.989 296.684 262.913 296.596 262.826 296.489C259.627 292.814 235.165 268.462 230.441 261.63C230.421 261.587 230.386 261.542 230.377 261.5C227.565 256.322 239.111 251.21 241.965 254.063C244.851 256.948 268.447 287.755 270.252 289.56C270.513 289.82 270.773 290.188 271.03 290.63C272.554 293.289 273.851 298.672 272.771 299.288Z" fill="black"/>
<path d="M230.376 261.498C227.564 256.32 239.11 251.208 241.964 254.061C243.866 257.866 234.332 265.647 230.376 261.498Z" fill="#FFE7B8"/>
<path d="M272.771 299.288C271.517 300.002 267.367 298.748 263.042 296.76C262.989 296.684 262.913 296.596 262.826 296.489C266.967 297.137 270.36 294.134 271.03 290.631C272.554 293.289 273.851 298.672 272.771 299.288Z" fill="#FFE7B8"/>
<path d="M235.303 300.187C235.483 293.162 238.301 280.047 244.608 277.527C247.248 280.222 248.955 282.063 248.955 282.063C247.515 286.565 251.699 289.739 255.302 287.936C258.904 286.135 260.343 281.451 264.488 280.909C268.633 280.37 266.832 284.694 263.948 289.737C261.065 294.783 257.104 300.369 251.699 301.63C245.932 302.889 236.024 303.069 235.303 300.187Z" fill="#FFA66B"/>
<path d="M255.48 325.228C256.021 316.941 254.578 305.049 253.499 300.726C252.419 296.404 244.129 290.999 234.222 300.186C224.314 309.374 213.864 361.079 223.773 374.77C233.682 388.464 253.231 387.609 265.123 376.605C282.29 360.719 300.01 343.754 301.632 342.852C303.252 341.951 298.727 390.44 301.79 397.106C324.309 403.051 420.639 388.282 422.441 385.94C424.244 383.599 426.755 365.233 410.721 327.399C424.956 326.106 432.737 316.754 421.289 294.272C412.011 276.05 398.48 266.272 378.122 260.731C349.959 253.066 325.743 259.291 302.682 277.666C279.621 296.042 258.541 320.726 255.48 325.228Z" fill="#60A5FA"/>
<path d="M288.233 261.609C290.643 260.505 293.391 261.029 295.884 261.467C298.405 261.91 300.909 262.495 303.103 263.865C303.651 264.208 304.154 263.343 303.608 263.002C300.892 261.304 297.738 260.771 294.627 260.239C292.341 259.848 289.886 259.758 287.73 260.746C287.144 261.015 287.652 261.876 288.233 261.609Z" fill="black"/>
<path d="M291.734 258.105C294.838 257.501 297.393 257.475 300.465 258.333C302.767 258.975 305.521 259.947 307.565 261.163C308.121 261.494 308.623 260.629 308.069 260.3C305.614 258.839 302.601 257.891 299.86 257.125C296.922 256.306 294.413 256.567 291.469 257.141C290.835 257.264 291.104 258.228 291.734 258.105Z" fill="black"/>
<path d="M239.067 345.434C241.763 340.344 246.38 336.519 249.994 332.095C251.637 330.082 253.223 328.045 255.007 326.152C256.999 324.037 259.276 322.231 261.148 319.998C261.559 319.508 260.856 318.796 260.441 319.291C258.573 321.521 256.332 323.372 254.3 325.445C252.275 327.512 250.543 329.849 248.716 332.087C245.215 336.373 240.822 339.986 238.204 344.931C237.902 345.499 238.765 346.004 239.067 345.434Z" fill="black"/>
<path d="M398.048 297.915C401.563 303.076 403.593 309.847 405.928 315.657C407.914 320.601 410.516 325.763 411.674 330.989C411.814 331.619 412.778 331.351 412.639 330.723C411.443 325.328 408.744 320 406.693 314.895C404.382 309.146 402.395 302.525 398.912 297.411C398.551 296.881 397.684 297.381 398.048 297.915Z" fill="black"/>
<path d="M233.23 258.841C234.446 261.273 239.986 258.165 238.499 256.138C237.013 254.112 231.743 257.355 233.23 258.841Z" fill="black"/>
<path d="M272.574 294.52C271.855 296.425 270.177 298.648 268.668 298.927C270.587 299.487 272.099 299.671 272.77 299.289C273.432 298.913 273.202 296.75 272.574 294.52Z" fill="black"/>
<path d="M290.521 291.186C298.859 288.804 305.254 294.443 310.002 300.685C315.213 307.537 316.571 315.869 315.375 324.252C315.285 324.882 316.249 325.154 316.34 324.518C317.628 315.487 316.076 306.688 310.301 299.44C305.264 293.118 298.749 287.797 290.256 290.221C289.636 290.397 289.9 291.362 290.521 291.186Z" fill="black"/>
<path d="M306.438 287.904C307.956 284.112 311.594 281.234 314.244 278.211C316.985 275.084 320.072 272.698 323.309 270.125C323.814 269.724 323.101 269.021 322.602 269.418C318.885 272.372 315.605 275.188 312.435 278.752C309.94 281.558 306.899 284.078 305.473 287.639C305.234 288.237 306.2 288.495 306.438 287.904Z" fill="black"/>
<path d="M300.525 344.24C302.104 342.504 303.982 341.127 305.812 339.672C308.024 337.913 310.087 335.976 312.274 334.186C312.773 333.778 312.061 333.074 311.567 333.479C309.58 335.106 307.638 336.8 305.695 338.48C303.729 340.179 301.577 341.599 299.818 343.534C299.385 344.009 300.09 344.719 300.525 344.24Z" fill="black"/>
<path d="M311.872 345.854C311.872 352.408 311.801 358.966 311.89 365.519C311.977 371.97 312.592 378.401 312.622 384.854C312.625 385.499 313.625 385.499 313.622 384.854C313.592 378.401 313.027 371.968 312.89 365.519C312.749 358.969 312.872 352.405 312.872 345.854C312.872 345.21 311.872 345.21 311.872 345.854Z" fill="black"/>
<path d="M250.881 147.618C246.432 133.339 241.225 119.247 236.225 105.155C231.443 91.6762 225.862 78.2702 222.239 64.4212C222.13 64.0042 222.029 63.5822 221.966 63.1552C221.777 61.8832 219.851 62.4262 220.038 63.6862C220.419 66.2552 221.431 68.8062 222.228 71.2642C223.624 75.5662 225.103 79.8432 226.591 84.1142C228.871 90.6582 231.238 97.1702 233.584 103.691C238.755 118.064 243.806 132.505 248.587 147.013C248.711 147.391 248.834 147.77 248.953 148.15C249.335 149.377 251.267 148.853 250.881 147.618Z" fill="black"/>
<path d="M208.28 43.4628C211.702 41.3008 216.567 40.0398 219.809 41.8408C223.051 43.6418 229.358 51.3878 227.014 59.3168C224.673 67.2438 216.746 64.7208 213.502 62.7398C210.261 60.7568 203.595 47.4258 208.28 43.4628Z" fill="#60A5FA"/>
<path d="M218.535 45.6106C221.141 43.0706 224.42 41.0426 227.344 38.9016C232.914 34.8236 238.524 30.7996 244.137 26.7816C253.115 20.3556 262.134 13.9886 271.119 7.57361C272.159 6.83161 271.162 5.09561 270.109 5.84661C260.975 12.3676 251.808 18.8396 242.683 25.3716C237.103 29.3656 231.529 33.3706 225.992 37.4246C223.046 39.5816 219.746 41.6356 217.121 44.1956C216.197 45.0986 217.612 46.5116 218.535 45.6106Z" fill="black"/>
<path d="M286.107 31.2122C280.423 31.8982 271.514 33.7342 271.694 43.6432C271.875 53.5512 272.594 54.0912 268.992 56.4332C265.39 58.7762 251.337 71.9272 254.221 85.6192C257.103 99.3122 279.802 105.617 300.88 100.213C321.958 94.8082 327.004 85.6192 325.563 77.5132C324.121 69.4062 317.995 56.2532 309.528 53.5522C301.602 51.0292 302.503 50.4892 301.422 42.9222C300.338 35.3552 296.557 29.9512 286.107 31.2122Z" fill="#AFD1DF"/>
<path d="M277.035 8.95681C279.534 17.8798 283.718 26.3648 285.682 35.4398C285.954 36.7008 287.882 36.1658 287.61 34.9088C285.646 25.8328 281.463 17.3478 278.963 8.42581C278.616 7.18581 276.687 7.71281 277.035 8.95681Z" fill="black"/>
<path d="M208.639 45.0444C211.941 44.8564 214.541 49.3394 215.813 51.8564C216.802 53.8164 219.445 61.6204 215.713 62.4384C215.083 62.5764 215.351 63.5404 215.979 63.4024C219.891 62.5454 218.385 56.2144 217.617 53.6864C216.54 50.1414 213.056 43.7924 208.64 44.0444C207.998 44.0814 207.994 45.0814 208.639 45.0444Z" fill="black"/>
<path d="M223.328 152.281C225.198 164.813 242.588 164.499 252.19 164.059C259.173 163.739 266.688 162.886 273.257 160.385C278.076 158.551 280.21 154.099 280.454 149.197C280.486 148.552 279.486 148.555 279.454 149.197C279.151 155.277 275.936 158.706 270.215 160.291C264.044 162.001 257.697 162.806 251.314 163.099C245.543 163.364 240.041 163.268 234.448 161.69C231.705 160.916 228.983 159.811 226.847 157.88C225.14 156.338 224.616 154.183 224.292 152.014C224.198 151.379 223.234 151.651 223.328 152.281Z" fill="black"/>
<path d="M270.434 4.18943C271.453 9.28643 274.037 11.9344 278.36 9.95444C282.684 7.97244 280.161 3.64744 278.18 1.30544C276.199 -1.03756 269.533 -0.31457 270.434 4.18943Z" fill="#FFE7B8"/>
<path d="M271.587 2.09819C274.263 0.929189 278.671 6.17319 276.746 8.52019C276.341 9.01419 277.044 9.72619 277.453 9.22719C280.143 5.94519 274.839 -0.406813 271.083 1.23519C270.494 1.49219 271.003 2.35419 271.587 2.09819Z" fill="black"/>
<path d="M274.995 36.8444C274.098 41.6894 279.88 42.7334 283.5 42.9444C288.521 43.2354 295.604 42.2544 298.608 37.7694C298.968 37.2314 298.101 36.7314 297.745 37.2644C295.207 41.0544 289.54 41.7684 285.336 41.9574C282.285 42.0954 275.112 41.6864 275.96 37.1104C276.076 36.4794 275.113 36.2104 274.995 36.8444Z" fill="black"/>
<path d="M271.735 55.7118C271.854 61.5658 278.318 62.9468 282.954 63.1898C289.596 63.5378 296.357 62.5548 300.411 56.6858C300.778 56.1538 299.911 55.6538 299.548 56.1808C296.135 61.1228 290.382 62.3998 284.706 62.2658C280.345 62.1618 272.856 61.7098 272.735 55.7128C272.722 55.0678 271.722 55.0668 271.735 55.7118Z" fill="black"/>
</svg>
