<svg width="1106" height="1162" viewBox="0 0 1106 1162" fill="none" xmlns="http://www.w3.org/2000/svg">
<path fill-rule="evenodd" clip-rule="evenodd" d="M275.2 842.4L565.2 585.5L717.9 730.5L265.7 1117L0 886.5L155.9 751.6L275.2 842.4Z" fill="white"/>
<path fill-rule="evenodd" clip-rule="evenodd" d="M100.9 0.101562H1006.8C1061.3 0.101562 1105.9 48.9016 1105.9 108.502V1052.9C1105.9 1112.5 1061.3 1161.3 1006.8 1161.3H100.9C46.3998 1161.3 1.7998 1112.5 1.7998 1052.9V108.502C1.7998 48.8016 46.3998 0.101562 100.9 0.101562Z" fill="#0177B5"/>
<path fill-rule="evenodd" clip-rule="evenodd" d="M23.5996 915.5H1084.3V1042.9C1084.3 1094.7 1048.1 1137 1000.8 1137H107.1C59.7996 1137 23.5996 1094.6 23.5996 1042.9V915.5Z" fill="white"/>
<path fill-rule="evenodd" clip-rule="evenodd" d="M237.8 1061.4C237.8 1077.6 235 1088.8 229.4 1094.9C224.1 1100.7 215.1 1103.6 202.3 1103.6H140.3V952.399H200.1C213.5 952.399 222.7 955.599 227.8 961.899C232.6 967.799 235 977.799 235 991.699C235 1003.3 233.4 1011.7 230.1 1016.9C227.6 1020.8 223.6 1023.6 218 1025.2V1026C228.7 1027.5 235 1034.1 236.8 1045.6C237.5 1050.1 237.8 1055.4 237.8 1061.4ZM212.1 994.399C212.1 987.699 211.1 983.099 209.2 980.699C208.2 979.499 206.8 978.599 205 977.999C202.9 977.399 199.5 976.999 194.8 976.999H163.1V1015.5H194.5C198.2 1015.5 200.7 1015.4 202 1015.1C208.7 1013.8 212.1 1006.9 212.1 994.399ZM214.8 1059C214.8 1050.7 213.8 1045 211.8 1042.1C209.5 1039.3 205.1 1037.9 198.7 1037.9H163.2V1078.8H197.4C201.6 1078.8 204.8 1078.4 207.2 1077.6C212.3 1075.3 214.8 1069 214.8 1059ZM351.3 997.199C351.3 1013.9 349.5 1024.9 346 1030.3C342.8 1035.2 337.5 1038.5 330.1 1040.2V1040.8C337.1 1041.6 342.4 1044.7 346 1049.8C348.9 1055.6 350.3 1064.2 350.3 1075.4V1103.4H327.2V1080.6C327.2 1069.6 326 1062.3 323.5 1058.9C320.9 1055.2 316 1053.4 308.9 1053.4H276.9V1103.4H254V952.199H312.7C328.2 952.199 338.6 955.999 344.1 963.699C349 970.499 351.3 981.699 351.3 997.199ZM328.3 1001.9C328.3 992.399 327.4 985.899 325.6 982.499C323.3 978.899 317.9 977.099 309.4 977.099H277V1028.7H310C317 1028.7 322 1026.8 325 1022.9C327.2 1019.3 328.3 1012.2 328.3 1001.9ZM472.9 1103.5H449.5L441.9 1075H390.2L382.5 1103.5H358.8L398.6 952.299H432.2L472.9 1103.5ZM436.5 1053.1L416 974.199H415.9L395.3 1053H436.5V1053.1ZM505.5 1103.5H482.4V952.299H505.5V1103.5ZM637.3 1103.5H598.9L548.3 977.099H547.4L548.7 1039.8L549.3 1103.5H526.2V952.299H564.2L615.5 1078.7H616.1L614.2 952.299H637.3V1103.5Z" fill="#5B0A0A"/>
<path fill-rule="evenodd" clip-rule="evenodd" d="M825.2 952.301L793.2 1103.5H760L736.1 988.201H735.5L710.8 1103.5H677.9L646.9 952.301H670L694.8 1079.9H695.4L722.7 952.301H749.1L775.8 1079.9H776.5L802.3 952.301H825.2ZM857.9 1103.5H834.8V952.301H857.9V1103.5ZM967.5 1103.5H872V1079.1L938.1 977.101H875.2V952.301H966.6V977.101L900.7 1078.7H967.6V1103.5H967.5Z" fill="#5B0A0A"/>
<path fill-rule="evenodd" clip-rule="evenodd" d="M469.2 91H594.2V736.9C858 694 789.7 383 605.2 384.1L657.9 281.8C1021.6 380.4 943.4 831.3 561.9 852.5H469.3V91H469.2Z" fill="white"/>
<path fill-rule="evenodd" clip-rule="evenodd" d="M144 740.802L231.5 668.202L315.7 729.702L518.8 557.102L604.2 634.902L308.2 877.502L144 740.802Z" stroke="white" stroke-width="5.9734" stroke-miterlimit="2.6131"/>
<path fill-rule="evenodd" clip-rule="evenodd" d="M144 740.802L231.5 668.202L315.8 729.702L518.9 557.102L604.2 634.802L308.2 877.402L144 740.802Z" fill="#00A651"/>
</svg>
