<svg width="6865" height="1175" viewBox="0 0 6865 1175" fill="none" xmlns="http://www.w3.org/2000/svg">
<path fill-rule="evenodd" clip-rule="evenodd" d="M275.2 842.4L565.2 585.5L717.9 730.5L265.7 1117L0 886.5L155.9 751.6L275.2 842.4Z" fill="white"/>
<path fill-rule="evenodd" clip-rule="evenodd" d="M100.9 0.101562H1006.8C1061.3 0.101562 1105.9 48.9016 1105.9 108.502V1052.9C1105.9 1112.5 1061.3 1161.3 1006.8 1161.3H100.9C46.3998 1161.3 1.7998 1112.5 1.7998 1052.9V108.502C1.7998 48.8016 46.3998 0.101562 100.9 0.101562Z" fill="#0177B5"/>
<path fill-rule="evenodd" clip-rule="evenodd" d="M23.5996 915.5H1084.3V1042.9C1084.3 1094.7 1048.1 1137 1000.8 1137H107.1C59.7996 1137 23.5996 1094.6 23.5996 1042.9V915.5Z" fill="white"/>
<path fill-rule="evenodd" clip-rule="evenodd" d="M237.8 1061.4C237.8 1077.6 235 1088.8 229.4 1094.9C224.1 1100.7 215.1 1103.6 202.3 1103.6H140.3V952.399H200.1C213.5 952.399 222.7 955.599 227.8 961.899C232.6 967.799 235 977.799 235 991.699C235 1003.3 233.4 1011.7 230.1 1016.9C227.6 1020.8 223.6 1023.6 218 1025.2V1026C228.7 1027.5 235 1034.1 236.8 1045.6C237.5 1050.1 237.8 1055.4 237.8 1061.4ZM212.1 994.399C212.1 987.699 211.1 983.099 209.2 980.699C208.2 979.499 206.8 978.599 205 977.999C202.9 977.399 199.5 976.999 194.8 976.999H163.1V1015.5H194.5C198.2 1015.5 200.7 1015.4 202 1015.1C208.7 1013.8 212.1 1006.9 212.1 994.399ZM214.8 1059C214.8 1050.7 213.8 1045 211.8 1042.1C209.5 1039.3 205.1 1037.9 198.7 1037.9H163.2V1078.8H197.4C201.6 1078.8 204.8 1078.4 207.2 1077.6C212.3 1075.3 214.8 1069 214.8 1059ZM351.3 997.199C351.3 1013.9 349.5 1024.9 346 1030.3C342.8 1035.2 337.5 1038.5 330.1 1040.2V1040.8C337.1 1041.6 342.4 1044.7 346 1049.8C348.9 1055.6 350.3 1064.2 350.3 1075.4V1103.4H327.2V1080.6C327.2 1069.6 326 1062.3 323.5 1058.9C320.9 1055.2 316 1053.4 308.9 1053.4H276.9V1103.4H254V952.199H312.7C328.2 952.199 338.6 955.999 344.1 963.699C349 970.499 351.3 981.699 351.3 997.199ZM328.3 1001.9C328.3 992.399 327.4 985.899 325.6 982.499C323.3 978.899 317.9 977.099 309.4 977.099H277V1028.7H310C317 1028.7 322 1026.8 325 1022.9C327.2 1019.3 328.3 1012.2 328.3 1001.9ZM472.9 1103.5H449.5L441.9 1075H390.2L382.5 1103.5H358.8L398.6 952.299H432.2L472.9 1103.5ZM436.5 1053.1L416 974.199H415.9L395.3 1053H436.5V1053.1ZM505.5 1103.5H482.4V952.299H505.5V1103.5ZM637.3 1103.5H598.9L548.3 977.099H547.4L548.7 1039.8L549.3 1103.5H526.2V952.299H564.2L615.5 1078.7H616.1L614.2 952.299H637.3V1103.5Z" fill="#5B0A0A"/>
<path fill-rule="evenodd" clip-rule="evenodd" d="M825.2 952.301L793.2 1103.5H760L736.1 988.201H735.5L710.8 1103.5H677.9L646.9 952.301H670L694.8 1079.9H695.4L722.7 952.301H749.1L775.8 1079.9H776.5L802.3 952.301H825.2ZM857.9 1103.5H834.8V952.301H857.9V1103.5ZM967.5 1103.5H872V1079.1L938.1 977.101H875.2V952.301H966.6V977.101L900.7 1078.7H967.6V1103.5H967.5Z" fill="#5B0A0A"/>
<path fill-rule="evenodd" clip-rule="evenodd" d="M469.2 91H594.2V736.9C858 694 789.7 383 605.2 384.1L657.9 281.8C1021.6 380.4 943.4 831.3 561.9 852.5H469.3V91H469.2Z" fill="white"/>
<path fill-rule="evenodd" clip-rule="evenodd" d="M144 740.802L231.5 668.202L315.7 729.702L518.8 557.102L604.2 634.902L308.2 877.502L144 740.802Z" stroke="white" stroke-width="5.9734" stroke-miterlimit="2.6131"/>
<path fill-rule="evenodd" clip-rule="evenodd" d="M144 740.802L231.5 668.202L315.8 729.702L518.9 557.102L604.2 634.802L308.2 877.402L144 740.802Z" fill="#00A651"/>
<path fill-rule="evenodd" clip-rule="evenodd" d="M1943.4 551.602C1943.4 633.502 1924.4 689.902 1886.5 720.802C1850.9 750.002 1790.1 764.602 1703.8 764.602H1285.3V0.101562H1689C1779.4 0.101562 1841.6 16.1016 1875.8 48.2016C1908 78.1016 1924.1 128.402 1924.1 198.902C1924.1 257.702 1913 300.202 1890.8 326.302C1874.2 346.202 1847 360.102 1809.2 368.102V372.202C1881.7 380.002 1924.1 413.202 1936.2 471.402C1941.1 494.902 1943.4 521.502 1943.4 551.602ZM1769.5 213.102C1769.5 179.102 1763.1 156.002 1750.2 143.802C1743.4 137.702 1734.1 133.302 1722.1 130.402C1707.8 127.202 1684.9 125.502 1653.6 125.502H1440V320.202H1651.7C1676.7 320.202 1693.6 319.502 1702 318.202C1747 311.002 1769.5 276.002 1769.5 213.102ZM1787.8 539.602C1787.8 497.502 1781 468.902 1767.4 454.002C1751.7 439.702 1722.3 432.602 1679.4 432.602H1440V639.402H1671C1699.1 639.402 1721.1 637.402 1737.2 633.502C1770.9 621.802 1787.8 590.402 1787.8 539.602ZM2709 227.202C2709 311.502 2697.2 367.402 2673.4 394.602C2651.6 419.402 2616 436.102 2566 444.602V447.702C2613.2 451.902 2649 467.202 2673.2 493.402C2692.7 522.802 2702.4 566.102 2702.4 623.002V764.702H2546.7V649.502C2546.7 593.802 2538.5 557.102 2522 539.602C2504.6 521.102 2471.5 511.902 2423.2 511.902H2207.4V764.702H2052.8V0.101562H2449C2553.5 0.101562 2624 19.5016 2660.5 58.0016C2692.9 92.2016 2709 148.702 2709 227.202ZM2553.3 251.002C2553.3 202.702 2547.2 170.102 2534.9 152.802C2519.2 134.602 2482.7 125.402 2425.4 125.402H2207.5V386.402H2429.9C2477.3 386.402 2511.1 376.502 2530.8 357.002C2545.8 338.702 2553.3 303.202 2553.3 251.002ZM3528.8 764.702H3371.2L3319.6 620.802H2970.9L2919.2 764.702H2759.2L3027.6 0.101562H3254.1L3528.8 764.702ZM3283.1 509.802L3144.6 111.002L3143.7 111.202L3005.1 509.802H3283.1ZM3749 764.702H3593.3V0.101562H3749V764.702ZM4637.5 764.702H4378.8L4037.3 125.502H4031L4039.8 442.602L4043.9 764.802H3888.2V0.101562H4144.8L4490.5 639.302H4494.8L4481.9 0.101562H4637.6V764.702H4637.5Z" fill="#0177B5"/>
<path fill-rule="evenodd" clip-rule="evenodd" d="M5905.3 0.100006L5689.5 764.7H5465.1L5304 181.5H5300.1L5133.5 764.6H4911.3L4702.1 0H4857.9L5025.2 645.3H5029.5L5214 0.100006H5392.2L5572.5 645.4H5577L5750.7 0.100006H5905.3ZM6125.5 764.7H5969.8V0.100006H6125.5V764.7ZM6865 764.7H6220.7V641.2L6666.2 125.5H6242.2V0.100006H6858.4V125.5L6414 639.3H6865V764.7Z" fill="#00A651"/>
<path fill-rule="evenodd" clip-rule="evenodd" d="M1317.6 1104.5V874.8H1359.6V959.5H1486.8V874.8H1528.8V1104.5H1486.8V992.9H1359.6V1104.5H1317.6ZM1613.7 1174.5H1574.3L1620.2 1091.6L1558.7 955.7H1601.1L1631.8 1032.7C1633.6 1037.4 1635.1 1042.2 1636.5 1047.1C1637.8 1052 1638.9 1056.9 1639.7 1061.9C1641.2 1056.7 1644.9 1048.4 1650.6 1036.9L1651.5 1035L1692.8 955.6H1734.3L1613.7 1174.5ZM1875.5 1029.6C1875.5 1014.2 1871.5 1002.3 1863.4 993.7C1855.3 985.1 1844.1 980.8 1829.6 980.8C1815.1 980.8 1803.7 985.2 1795.4 994.1C1787.2 1002.9 1783 1015.2 1783 1030.9C1783 1046.7 1787 1058.9 1795 1067.5C1803 1076.1 1814.3 1080.4 1828.9 1080.4C1842.8 1080.4 1854 1075.8 1862.7 1066.5C1871.1 1057.2 1875.5 1045 1875.5 1029.6ZM1874.4 861.3H1912.7V1104.5H1874.4V1085.2C1867.6 1093.8 1859.6 1100.1 1850.5 1104.3C1841.4 1108.5 1831 1110.6 1819.2 1110.6C1795.6 1110.6 1777 1103.4 1763.3 1089C1749.7 1074.6 1742.9 1054.9 1742.9 1029.9C1742.9 1006.2 1749.8 987 1763.8 972.4C1777.7 957.8 1795.8 950.5 1818.2 950.5C1831.8 950.5 1843.5 953 1853.2 958.1C1862.9 963.2 1870 970.5 1874.5 980V861.3H1874.4ZM2126.9 1035.2H1993C1994 1049.1 1998.6 1059.9 2007 1067.8C2015.3 1075.6 2026.5 1079.5 2040.4 1079.5C2052.8 1079.5 2063.1 1077.2 2071.3 1072.6C2079.5 1068 2086.7 1060.5 2092.9 1050.3L2125.2 1066.3C2115.8 1081.2 2104.1 1092.4 2090.2 1099.7C2076.3 1107 2060 1110.7 2041.3 1110.7C2014.5 1110.7 1993.1 1103.4 1977.2 1088.9C1961.3 1074.3 1953.3 1054.9 1953.3 1030.7C1953.3 1007.3 1961.5 988.2 1978 973.2C1994.4 958.2 2015.5 950.7 2041.3 950.7C2068.2 950.7 2089.3 957.6 2104.3 971.3C2119.4 985 2126.9 1004.2 2126.9 1028.9V1035.2ZM2087.2 1012.2C2085.7 1001.5 2081 993.4 2073.4 987.8C2065.7 982.2 2055.3 979.4 2042 979.4C2029.4 979.4 2019.3 982.1 2011.6 987.5C2003.9 993 1998.6 1001.2 1995.5 1012.1H2087.2V1012.2ZM2205.2 979.4C2209.3 969.6 2214.8 962.3 2221.5 957.6C2228.3 952.9 2236.6 950.5 2246.7 950.5C2252.1 950.5 2257.4 951.1 2262.7 952.2C2268 953.4 2273.1 955 2278.1 957.2L2264.3 986.1C2261 984 2257.5 982.5 2253.6 981.5C2249.8 980.5 2245.5 980 2240.8 980C2228.1 980 2219 984.5 2213.4 993.5C2207.9 1002.6 2205.1 1017.8 2205.1 1039.1V1104.4H2166.8V955.3H2205.1V979.4H2205.2ZM2457.4 1104.5H2419.1V1085.2C2412.3 1093.8 2404.3 1100.1 2395.2 1104.3C2386.1 1108.5 2375.7 1110.6 2363.9 1110.6C2340.3 1110.6 2321.7 1103.4 2308 1089C2294.4 1074.6 2287.6 1054.9 2287.6 1029.9C2287.6 1006.2 2294.5 987 2308.5 972.4C2322.4 957.8 2340.5 950.5 2362.9 950.5C2376.5 950.5 2388.2 953 2397.9 958.1C2407.6 963.2 2414.7 970.5 2419.2 980V955.8H2457.5V1104.5H2457.4ZM2420.2 1029.6C2420.2 1014.2 2416.2 1002.3 2408.1 993.7C2400 985.1 2388.8 980.8 2374.3 980.8C2359.8 980.8 2348.4 985.2 2340.1 994.1C2331.8 1002.9 2327.7 1015.2 2327.7 1030.9C2327.7 1046.7 2331.7 1058.9 2339.7 1067.5C2347.7 1076.1 2359 1080.4 2373.6 1080.4C2387.4 1080.4 2398.6 1075.7 2407.2 1066.4C2415.8 1057.1 2420.2 1044.9 2420.2 1029.6ZM2547.5 1029.6C2547.5 1044.8 2551.9 1057 2560.7 1066.3C2569.4 1075.6 2580.8 1080.3 2594.6 1080.3C2609.1 1080.3 2620.3 1076 2628.2 1067.4C2636.2 1058.8 2640.1 1046.6 2640.1 1030.8C2640.1 1015.1 2635.9 1002.8 2627.7 994C2619.4 985.2 2608 980.7 2593.5 980.7C2579 980.7 2567.7 985 2559.6 993.6C2551.6 1002.3 2547.5 1014.3 2547.5 1029.6ZM2548.7 861.3V980C2553.2 970.6 2560.3 963.3 2570.2 958.2C2580 953.1 2591.8 950.5 2605.4 950.5C2627.6 950.5 2645.7 957.8 2659.5 972.4C2673.3 987 2680.2 1006.1 2680.2 1029.9C2680.2 1054.9 2673.4 1074.6 2659.8 1089C2646.2 1103.4 2627.6 1110.6 2603.9 1110.6C2592.1 1110.6 2581.7 1108.5 2572.6 1104.3C2563.5 1100.1 2555.5 1093.7 2548.7 1085.2V1104.5H2510.4V861.3H2548.7ZM2878.3 1104.5H2840V1085.2C2833.2 1093.8 2825.2 1100.1 2816.1 1104.3C2807 1108.5 2796.6 1110.6 2784.8 1110.6C2761.2 1110.6 2742.6 1103.4 2728.9 1089C2715.3 1074.6 2708.5 1054.9 2708.5 1029.9C2708.5 1006.2 2715.4 987 2729.4 972.4C2743.3 957.8 2761.4 950.5 2783.8 950.5C2797.4 950.5 2809.1 953 2818.8 958.1C2828.5 963.2 2835.6 970.5 2840.1 980V955.8H2878.4V1104.5H2878.3ZM2841.1 1029.6C2841.1 1014.2 2837.1 1002.3 2829 993.7C2820.9 985.1 2809.7 980.8 2795.2 980.8C2780.7 980.8 2769.3 985.2 2761 994.1C2752.8 1002.9 2748.6 1015.2 2748.6 1030.9C2748.6 1046.7 2752.6 1058.9 2760.6 1067.5C2768.6 1076.1 2779.9 1080.4 2794.5 1080.4C2808.3 1080.4 2819.5 1075.7 2828.1 1066.4C2836.8 1057.1 2841.1 1044.9 2841.1 1029.6ZM3051.6 1029.6C3051.6 1014.2 3047.6 1002.3 3039.5 993.7C3031.4 985.1 3020.2 980.8 3005.7 980.8C2991.2 980.8 2979.9 985.2 2971.5 994.1C2963.3 1002.9 2959.1 1015.2 2959.1 1030.9C2959.1 1046.7 2963.1 1058.9 2971.1 1067.5C2979.1 1076.1 2990.4 1080.4 3005 1080.4C3018.9 1080.4 3030.1 1075.8 3038.7 1066.5C3047.2 1057.2 3051.6 1045 3051.6 1029.6ZM3050.5 861.3H3088.8V1104.5H3050.5V1085.2C3043.7 1093.8 3035.7 1100.1 3026.6 1104.3C3017.5 1108.5 3007.1 1110.6 2995.3 1110.6C2971.7 1110.6 2953.1 1103.4 2939.4 1089C2925.8 1074.6 2919 1054.9 2919 1029.9C2919 1006.2 2925.9 987 2939.9 972.4C2953.8 957.8 2971.9 950.5 2994.3 950.5C3007.9 950.5 3019.6 953 3029.3 958.1C3039 963.2 3046.1 970.5 3050.6 980V861.3H3050.5ZM3130.5 879.2H3159.4V966.6H3130.5V879.2ZM3181.6 1077.5L3213.4 1062.1C3215.7 1069.6 3220.1 1075.2 3226.5 1079.1C3232.9 1083 3241 1084.9 3251.1 1084.9C3259.7 1084.9 3266.4 1083.1 3271.3 1079.7C3276.2 1076.2 3278.7 1071.4 3278.7 1065.3C3278.7 1057.2 3270 1050.3 3252.6 1044.6C3246.7 1042.7 3242.2 1041.2 3239 1039.9C3221.1 1033.3 3208.6 1026.6 3201.5 1019.8C3194.4 1013 3190.8 1004.8 3190.8 995C3190.8 981.7 3196.6 970.9 3208.4 962.6C3220.1 954.4 3235.6 950.2 3254.9 950.2C3267.9 950.2 3279 952.3 3288.2 956.6C3297.4 960.8 3304.2 966.8 3308.4 974.7L3281.2 991.4C3279.2 986.7 3275.7 982.9 3270.7 980.1C3265.7 977.3 3259.9 975.9 3253.3 975.9C3246 975.9 3240.2 977.5 3235.8 980.6C3231.4 983.7 3229.2 987.8 3229.2 992.9C3229.2 1000.6 3239.1 1007.7 3258.9 1014.1C3265.2 1016.1 3270 1017.7 3273.4 1019C3288.8 1024.4 3299.9 1030.6 3306.5 1037.4C3313.2 1044.3 3316.5 1052.8 3316.5 1063.1C3316.5 1077.9 3310.4 1089.6 3298.3 1098C3286.2 1106.4 3269.5 1110.6 3248.2 1110.6C3231.8 1110.6 3218.2 1107.9 3207.4 1102.5C3196.1 1097 3187.7 1088.7 3181.6 1077.5ZM3508.3 971.8H3524.3C3544.3 971.8 3558.5 969.4 3566.8 964.5C3575.1 959.6 3579.2 951.4 3579.2 939.9C3579.2 927.4 3575.4 918.5 3567.8 913.4C3560.1 908.3 3545.7 905.8 3524.3 905.8H3508.3V971.8ZM3508.3 1073.3H3522.8C3537.5 1073.3 3548.5 1072.8 3555.8 1071.7C3563.1 1070.6 3568.8 1068.8 3573.1 1066.2C3578.3 1063.2 3582.3 1059.1 3585.1 1054C3587.9 1048.9 3589.3 1043.2 3589.3 1037C3589.3 1029.7 3587.6 1023.3 3584.2 1017.9C3580.8 1012.4 3575.9 1008.2 3569.6 1005.2C3565.6 1003.4 3561 1002.1 3555.9 1001.2C3550.8 1000.4 3544 1000 3535.5 1000H3522.8H3508.3V1073.3ZM3467.1 1104.5V874.8H3532.3C3550.9 874.8 3564.7 875.7 3573.5 877.5C3582.4 879.3 3589.9 882.2 3596.2 886.3C3604.2 891.6 3610.4 898.4 3614.8 906.9C3619.2 915.4 3621.4 924.7 3621.4 935C3621.4 947.3 3618.2 957.5 3611.9 965.7C3605.5 973.9 3596.3 979.6 3584.2 982.9C3599.3 985 3611.1 991.1 3619.8 1001.2C3628.4 1011.3 3632.8 1024 3632.8 1039.4C3632.8 1048.7 3631 1057.6 3627.3 1065.9C3623.7 1074.3 3618.5 1081.4 3611.7 1087.3C3604.6 1093.7 3595.9 1098.2 3585.4 1100.8C3574.9 1103.4 3557.3 1104.7 3532.6 1104.7H3467.1V1104.5ZM3833.5 1035.2H3699.6C3700.6 1049.1 3705.2 1059.9 3713.6 1067.8C3721.9 1075.6 3733.1 1079.5 3747 1079.5C3759.4 1079.5 3769.7 1077.2 3777.9 1072.6C3786.2 1068 3793.3 1060.5 3799.5 1050.3L3831.8 1066.3C3822.4 1081.2 3810.7 1092.4 3796.8 1099.7C3782.9 1107 3766.6 1110.7 3747.9 1110.7C3721.1 1110.7 3699.7 1103.4 3683.8 1088.9C3667.9 1074.3 3659.9 1054.9 3659.9 1030.7C3659.9 1007.3 3668.1 988.2 3684.6 973.2C3701 958.2 3722.1 950.7 3747.9 950.7C3774.8 950.7 3795.9 957.6 3810.9 971.3C3826 985 3833.5 1004.2 3833.5 1028.9V1035.2ZM3793.8 1012.2C3792.3 1001.5 3787.7 993.4 3780 987.8C3772.3 982.2 3761.9 979.4 3748.6 979.4C3736 979.4 3725.9 982.1 3718.2 987.5C3710.5 993 3705.2 1001.2 3702.1 1012.1H3793.8V1012.2ZM3854.2 1077.5L3886 1062.1C3888.3 1069.6 3892.7 1075.2 3899.1 1079.1C3905.5 1083 3913.6 1084.9 3923.7 1084.9C3932.3 1084.9 3939 1083.1 3943.9 1079.7C3948.8 1076.2 3951.2 1071.4 3951.2 1065.3C3951.2 1057.2 3942.5 1050.3 3925.1 1044.6C3919.2 1042.7 3914.7 1041.2 3911.5 1039.9C3893.6 1033.3 3881.1 1026.6 3874 1019.8C3866.9 1013 3863.3 1004.8 3863.3 995C3863.3 981.7 3869.1 970.9 3880.9 962.6C3892.6 954.4 3908.1 950.2 3927.4 950.2C3940.4 950.2 3951.4 952.3 3960.7 956.6C3969.9 960.8 3976.7 966.8 3980.9 974.7L3953.7 991.4C3951.7 986.7 3948.2 982.9 3943.2 980.1C3938.2 977.3 3932.4 975.9 3925.8 975.9C3918.5 975.9 3912.7 977.5 3908.3 980.6C3903.9 983.7 3901.7 987.8 3901.7 992.9C3901.7 1000.6 3911.6 1007.7 3931.4 1014.1C3937.7 1016.1 3942.5 1017.7 3945.9 1019C3961.3 1024.4 3972.4 1030.6 3979 1037.4C3985.7 1044.3 3989 1052.8 3989 1063.1C3989 1077.9 3982.9 1089.6 3970.8 1098C3958.7 1106.4 3942 1110.6 3920.7 1110.6C3904.3 1110.6 3890.7 1107.9 3879.9 1102.5C3868.7 1097 3860.3 1088.7 3854.2 1077.5ZM4036.4 1104.5V985.6H4007.1V955.8H4036.4V899.5H4074.7V955.8H4104V985.6H4074.7V1104.5H4036.4ZM4250.1 1104.5V874.8H4292.1V1104.5H4250.1ZM4349.3 1104.5V955.8H4385.3V980.1C4393 969.8 4401.9 962.4 4412.3 957.7C4422.7 953 4435.3 950.6 4450.1 950.6C4462.6 950.6 4473.2 952.4 4482 955.9C4490.7 959.4 4497.6 964.6 4502.6 971.5C4505.6 975.6 4507.7 980.3 4509 985.7C4510.3 991.2 4510.9 1000.7 4510.9 1014.2V1104.5H4472.2V1028.1C4472.2 1008.6 4469.6 995.5 4464.2 989.1C4458.8 982.7 4449.3 979.5 4435.7 979.5C4426.7 979.5 4418.8 981 4411.8 983.9C4404.8 986.8 4399.3 991 4395.3 996.3C4392.5 999.9 4390.5 1004.4 4389.4 1010.1C4388.3 1015.7 4387.7 1024.6 4387.7 1036.8V1104.6H4349.3V1104.5ZM4542.6 1077.5L4574.4 1062.1C4576.7 1069.6 4581.1 1075.2 4587.5 1079.1C4593.9 1083 4602 1084.9 4612.1 1084.9C4620.7 1084.9 4627.4 1083.1 4632.3 1079.7C4637.2 1076.2 4639.6 1071.4 4639.6 1065.3C4639.6 1057.2 4630.9 1050.3 4613.5 1044.6C4607.6 1042.7 4603.1 1041.2 4599.9 1039.9C4582 1033.3 4569.5 1026.6 4562.4 1019.8C4555.3 1013 4551.7 1004.8 4551.7 995C4551.7 981.7 4557.5 970.9 4569.3 962.6C4581 954.4 4596.5 950.2 4615.8 950.2C4628.8 950.2 4639.8 952.3 4649.1 956.6C4658.3 960.8 4665.1 966.8 4669.3 974.7L4642.1 991.4C4640.1 986.7 4636.6 982.9 4631.6 980.1C4626.6 977.3 4620.8 975.9 4614.2 975.9C4606.9 975.9 4601.1 977.5 4596.7 980.6C4592.3 983.7 4590.1 987.8 4590.1 992.9C4590.1 1000.6 4600 1007.7 4619.8 1014.1C4626.1 1016.1 4630.9 1017.7 4634.3 1019C4649.7 1024.4 4660.8 1030.6 4667.4 1037.4C4674.1 1044.3 4677.4 1052.8 4677.4 1063.1C4677.4 1077.9 4671.3 1089.6 4659.2 1098C4647.1 1106.4 4630.4 1110.6 4609.1 1110.6C4592.7 1110.6 4579.1 1107.9 4568.3 1102.5C4557.2 1097 4548.8 1088.7 4542.6 1077.5ZM4724.9 1104.5V985.6H4695.6V955.8H4724.9V899.5H4763.2V955.8H4792.5V985.6H4763.2V1104.5H4724.9ZM4822.1 891.4C4822.1 885.6 4824.5 880.6 4829.3 876.5C4834.1 872.3 4839.7 870.2 4846.3 870.2C4853.2 870.2 4858.8 872.2 4863.4 876.3C4867.9 880.3 4870.2 885.4 4870.2 891.5C4870.2 897.6 4867.9 902.6 4863.3 906.8C4858.7 910.9 4853.1 913 4846.3 913C4839.7 913 4834.1 910.9 4829.3 906.6C4824.5 902.3 4822.1 897.3 4822.1 891.4ZM4827.3 1104.5V955.8H4865.6V1104.5H4827.3ZM4929.3 1104.5V985.6H4900V955.8H4929.3V899.5H4967.6V955.8H4996.9V985.6H4967.6V1104.5H4929.3ZM5067 955.8V1039.6C5067 1054.1 5070.4 1064.4 5077.1 1070.7C5083.8 1077 5094.7 1080.1 5109.8 1080.1C5124.8 1080.1 5135.7 1076.9 5142.4 1070.7C5149.1 1064.4 5152.5 1054.1 5152.5 1039.6V955.8H5190.8V1029.4C5190.8 1057.8 5184.4 1078.5 5171.6 1091.4C5158.8 1104.3 5138.3 1110.7 5110.1 1110.7C5081.5 1110.7 5060.8 1104.3 5048 1091.6C5035.2 1078.8 5028.8 1058.1 5028.8 1029.5V955.8H5067ZM5251.5 1104.5V985.6H5222.2V955.8H5251.5V899.5H5289.8V955.8H5319.1V985.6H5289.8V1104.5H5251.5ZM5513.3 1035.2H5379.4C5380.4 1049.1 5385 1059.9 5393.4 1067.8C5401.7 1075.6 5412.9 1079.5 5426.8 1079.5C5439.2 1079.5 5449.5 1077.2 5457.7 1072.6C5465.9 1068 5473.1 1060.5 5479.3 1050.3L5511.6 1066.3C5502.2 1081.2 5490.5 1092.4 5476.6 1099.7C5462.7 1107 5446.4 1110.7 5427.7 1110.7C5400.9 1110.7 5379.5 1103.4 5363.6 1088.9C5347.7 1074.3 5339.7 1054.9 5339.7 1030.7C5339.7 1007.3 5347.9 988.2 5364.4 973.2C5380.8 958.2 5401.9 950.7 5427.7 950.7C5454.6 950.7 5475.7 957.6 5490.7 971.3C5505.8 985 5513.3 1004.2 5513.3 1028.9V1035.2ZM5473.6 1012.2C5472.1 1001.5 5467.4 993.4 5459.8 987.8C5452.1 982.2 5441.7 979.4 5428.4 979.4C5415.8 979.4 5405.7 982.1 5398 987.5C5390.3 993 5385 1001.2 5381.9 1012.1H5473.6V1012.2ZM5667.6 1104.5V985.6H5638.3V955.8H5667.6V915.9C5667.6 896.1 5672.2 881.6 5681.5 872.1C5690.7 862.7 5705.1 858 5724.5 858C5728.7 858 5732.9 858.3 5737.2 858.8C5741.6 859.3 5746 860.1 5750.5 861.3V892C5747.4 890.4 5744.3 889.3 5741.2 888.5C5738.1 887.7 5734.9 887.3 5731.8 887.3C5722.6 887.3 5716 889.8 5712 894.8C5708 899.8 5706 908.3 5706 920.2V955.7H5746.3V985.5H5706V1104.4H5667.6V1104.5ZM5904.6 1030.6C5904.6 1016.8 5899.6 1005.1 5889.6 995.5C5879.6 985.9 5867.4 981.2 5852.9 981.2C5838.5 981.2 5826.3 986 5816.3 995.5C5806.2 1005.1 5801.2 1016.8 5801.2 1030.6C5801.2 1044.4 5806.3 1056.1 5816.3 1065.7C5826.4 1075.3 5838.5 1080.1 5852.9 1080.1C5867.2 1080.1 5879.4 1075.3 5889.5 1065.7C5899.5 1056.1 5904.6 1044.4 5904.6 1030.6ZM5760.7 1030.3C5760.7 1019.4 5763 1009.1 5767.7 999.5C5772.3 989.8 5779 981.2 5787.7 973.7C5796.3 966.3 5806.2 960.6 5817.4 956.6C5828.6 952.6 5840.2 950.7 5852.5 950.7C5865.1 950.7 5876.9 952.7 5888.1 956.6C5899.3 960.6 5909.2 966.5 5918.1 974.2C5926.9 981.9 5933.7 990.5 5938.2 1000.1C5942.8 1009.7 5945.1 1019.8 5945.1 1030.4C5945.1 1041.4 5942.8 1051.7 5938.3 1061.3C5933.8 1070.9 5927.1 1079.5 5918.5 1086.9C5909.3 1094.7 5899.1 1100.7 5887.9 1104.7C5876.7 1108.7 5864.9 1110.8 5852.6 1110.8C5840.4 1110.8 5828.8 1108.8 5817.6 1104.7C5806.4 1100.7 5796.5 1094.8 5787.8 1087.2C5779 1079.4 5772.3 1070.7 5767.7 1061.1C5763 1051.4 5760.7 1041.2 5760.7 1030.3ZM6023.9 979.4C6028 969.6 6033.5 962.3 6040.2 957.6C6046.9 952.9 6055.3 950.5 6065.4 950.5C6070.8 950.5 6076.1 951.1 6081.4 952.2C6086.6 953.4 6091.8 955 6096.8 957.2L6083 986.1C6079.7 984 6076.2 982.5 6072.3 981.5C6068.5 980.5 6064.2 980 6059.5 980C6046.8 980 6037.7 984.5 6032.1 993.5C6026.6 1002.6 6023.8 1017.8 6023.8 1039.1V1104.4H5985.5V955.3H6023.8V979.4H6023.9ZM6438.6 930.7C6426.7 921.7 6414.1 915 6400.9 910.5C6387.6 906 6373.7 903.7 6359.1 903.7C6330.8 903.7 6307.9 911.7 6290.1 927.9C6272.4 944 6263.5 964.9 6263.5 990.5C6263.5 1015.3 6272.1 1035.8 6289.4 1051.9C6306.6 1068 6328.4 1076.1 6354.7 1076.1C6369.9 1076.1 6384.5 1073.7 6398.4 1068.9C6412.2 1064.1 6425.5 1056.8 6438.2 1047.1V1089.3C6426.9 1096.5 6414.6 1101.9 6401.3 1105.4C6388 1109 6373.6 1110.8 6358 1110.8C6338.2 1110.8 6320 1107.9 6303.2 1102.2C6286.5 1096.4 6271.7 1088 6259 1076.8C6246.4 1065.8 6236.8 1052.9 6230 1038C6223.2 1023.1 6219.9 1007.2 6219.9 990.4C6219.9 973.5 6223.3 957.7 6230 942.9C6236.8 928.1 6246.6 915.1 6259.4 903.9C6272.2 892.6 6286.9 884 6303.6 878.2C6320.2 872.4 6338.1 869.5 6357.4 869.5C6372.6 869.5 6387.1 871.5 6400.8 875.4C6414.5 879.3 6427.9 885.3 6440.9 893.2L6438.6 930.7ZM6532.7 972.7H6540.3C6562.5 972.7 6577.3 970.4 6584.6 965.8C6591.9 961.2 6595.6 953.1 6595.6 941.3C6595.6 928.7 6591.7 919.8 6583.8 914.6C6576 909.4 6561.4 906.8 6540.3 906.8H6532.7V972.7ZM6530 1001.7V1104.5H6490.6V874.8H6549.2C6566.4 874.8 6579.8 875.8 6589.2 877.8C6598.7 879.8 6606.7 883 6613.5 887.7C6621.5 893.3 6627.7 900.4 6632.1 909.2C6636.4 918 6638.6 927.6 6638.6 938.1C6638.6 956.5 6633.6 970.9 6623.6 981.3C6613.6 991.7 6598.8 998 6579.2 1000L6668.2 1104.5H6620.7L6534.7 1001.7H6530ZM6776.7 906.5H6845V874.8H6666V906.5H6734.7V1104.5H6776.7V906.5Z" fill="#0177B5"/>
</svg>
